<svg width="65" height="132" viewBox="0 0 65 132" fill="none" xmlns="http://www.w3.org/2000/svg">
<path d="M8.496 93.2141L8.76 93.2381C8.968 93.1741 9.112 93.2381 9.192 93.4301C9.192 93.4621 9.264 93.6541 9.408 94.0061C9.632 94.5661 9.816 95.0541 9.96 95.4701C10.248 96.3021 10.488 97.0061 10.68 97.5821C10.936 98.3661 11.2 99.1821 11.472 100.03C11.76 100.942 12 101.758 12.192 102.478C12.336 102.99 12.488 103.614 12.648 104.35C12.744 104.798 12.824 105.254 12.888 105.718C12.936 106.102 12.96 106.422 12.96 106.678C12.96 107.126 12.912 107.438 12.816 107.614C12.736 107.758 12.648 107.878 12.552 107.974C12.488 108.038 12.392 108.094 12.264 108.142C12.136 108.19 11.992 108.206 11.832 108.19C11.496 108.158 11.12 108.03 10.704 107.806C10.272 107.566 9.816 107.254 9.336 106.87C8.856 106.486 8.352 106.054 7.824 105.574C7.296 105.094 6.792 104.614 6.312 104.134L6.312 104.182C6.456 104.39 6.656 104.686 6.912 105.07C7.168 105.454 7.368 105.742 7.512 105.934C8.216 106.958 8.752 107.734 9.12 108.262C9.488 108.79 10.024 109.582 10.728 110.638C10.952 110.942 11.176 111.286 11.4 111.67C11.544 111.91 11.744 112.27 12 112.75C12.176 113.022 12.296 113.334 12.36 113.686C12.392 113.91 12.344 114.102 12.216 114.262C12.104 114.422 11.928 114.494 11.688 114.478C11.208 114.43 10.744 114.27 10.296 113.998C10.248 113.966 10.048 113.846 9.696 113.638C9.344 113.43 9.072 113.262 8.88 113.134C8.368 112.798 7.816 112.374 7.224 111.862C6.616 111.334 6.024 110.782 5.448 110.206L5.232 109.99L5.016 109.774L6.096 111.358C6.224 111.55 6.424 111.83 6.696 112.198C6.952 112.566 7.128 112.822 7.224 112.966C7.528 113.398 7.968 114.03 8.544 114.862L9.84 116.734C10.192 117.214 10.456 117.582 10.632 117.838C10.808 118.094 11.056 118.478 11.376 118.99C11.584 119.294 11.752 119.646 11.88 120.046C12.008 120.35 11.984 120.59 11.808 120.766C11.664 120.942 11.416 121.006 11.064 120.958C10.84 120.942 10.552 120.846 10.2 120.67C9.864 120.51 9.52 120.318 9.168 120.094C8.8 119.854 8.448 119.59 8.112 119.302C7.328 118.614 6.56 117.854 5.808 117.022C5.152 116.302 4.4 115.414 3.552 114.358C3.232 113.974 2.928 113.598 2.64 113.23C2.256 112.718 1.976 112.342 1.8 112.102C1.72 112.022 1.616 111.886 1.488 111.694C1.36 111.502 1.256 111.366 1.176 111.286C1.128 111.238 1.048 111.102 0.935998 110.878C0.839998 110.67 0.871999 110.534 1.032 110.47C1.16 110.39 1.272 110.398 1.368 110.494C1.464 110.59 1.536 110.694 1.584 110.806C2.496 112.006 3.44 113.206 4.416 114.406C5.488 115.718 6.688 117.014 8.016 118.294C8.48 118.726 8.912 119.086 9.312 119.374C9.744 119.678 10.152 119.91 10.536 120.07L10.584 120.118L10.944 120.262C11.056 120.31 11.176 120.318 11.304 120.286C11.304 120.222 11.296 120.182 11.28 120.166C11.264 120.006 11.216 119.862 11.136 119.734C11.072 119.638 10.984 119.486 10.872 119.278C10.744 119.07 10.656 118.934 10.608 118.87C10.352 118.454 10.152 118.142 10.008 117.934C9.528 117.294 9.176 116.814 8.952 116.494C8.728 116.174 8.376 115.678 7.896 115.006C7.624 114.622 7.216 114.03 6.672 113.23L5.448 111.43C5.16 111.046 4.904 110.67 4.68 110.302C4.36 109.79 4.12 109.414 3.96 109.174C3.912 109.094 3.824 108.958 3.696 108.766C3.568 108.574 3.48 108.43 3.432 108.334C3.368 108.222 3.296 108.078 3.216 107.902C3.136 107.726 3.168 107.582 3.312 107.47C3.472 107.39 3.608 107.398 3.72 107.494C3.8 107.558 3.92 107.67 4.08 107.83L4.992 108.742C5.408 109.158 5.728 109.47 5.952 109.678C6.176 109.886 6.496 110.198 6.912 110.614C6.992 110.678 7.136 110.798 7.344 110.974C7.536 111.15 7.696 111.294 7.824 111.406C8.16 111.71 8.584 112.046 9.096 112.414C9.544 112.75 10 113.038 10.464 113.278C10.928 113.518 11.32 113.638 11.64 113.638L11.568 113.422C11.424 113.086 11.32 112.87 11.256 112.774L11.208 112.678C11 112.374 10.688 111.902 10.272 111.262C9.856 110.622 9.544 110.15 9.336 109.846C9.176 109.606 8.864 109.158 8.4 108.502C7.936 107.83 7.584 107.31 7.344 106.942C6.912 106.302 6.248 105.342 5.352 104.062C5.144 103.758 4.816 103.286 4.368 102.646C3.92 102.006 3.592 101.534 3.384 101.23C3.336 101.182 3.28 101.11 3.216 101.014L3.072 100.798C3.04 100.766 3.024 100.742 3.024 100.726C2.976 100.678 2.952 100.63 2.952 100.582C2.888 100.518 2.848 100.454 2.832 100.39C2.8 100.326 2.784 100.254 2.784 100.174C2.784 100.062 2.816 99.9981 2.88 99.9821C2.944 99.9501 3.016 99.9341 3.096 99.9341C3.16 99.9341 3.24 99.9501 3.336 99.9821C3.4 100.03 3.456 100.086 3.504 100.15L3.648 100.366L3.696 100.414C3.76 100.494 3.856 100.614 3.984 100.774C4.096 100.918 4.184 101.022 4.248 101.086L4.824 101.806C5.208 102.222 5.528 102.558 5.784 102.814L6.864 103.894C7.712 104.71 8.384 105.326 8.88 105.742C9.472 106.238 9.936 106.598 10.272 106.822C10.608 107.046 10.912 107.222 11.184 107.35C11.392 107.446 11.56 107.494 11.688 107.494C11.768 107.494 11.816 107.486 11.832 107.47C11.848 107.454 11.872 107.446 11.904 107.446C12.048 107.318 12.112 107.03 12.096 106.582C12.064 106.07 11.984 105.502 11.856 104.878C11.712 104.206 11.52 103.438 11.28 102.574C11.008 101.566 10.736 100.646 10.464 99.8141C10.16 98.8221 9.824 97.8141 9.456 96.7901C9.088 95.7661 8.704 94.7341 8.304 93.6941C8.272 93.5821 8.28 93.4861 8.328 93.4061C8.376 93.2941 8.432 93.2301 8.496 93.2141ZM8.544 80.6722L8.688 80.6482C8.896 80.5842 9.04 80.6562 9.12 80.8642L9.24 81.2002C9.336 81.4082 9.432 81.6482 9.528 81.9202C9.688 82.3522 9.776 82.6002 9.792 82.6642C9.808 82.7282 9.832 82.7922 9.864 82.8562C9.88 82.9202 9.896 82.9682 9.912 83.0002L9.912 83.0482C10.28 84.1522 10.52 85.1442 10.632 86.0242C10.76 86.9682 10.824 87.7602 10.824 88.4002C10.824 88.9602 10.784 89.4962 10.704 90.0082C10.64 90.4082 10.552 90.7762 10.44 91.1122L10.464 91.1362C10.944 91.6162 11.344 92.1442 11.664 92.7202C12 93.3122 12.144 93.9602 12.096 94.6642C12.096 94.9682 11.96 95.2162 11.688 95.4082C11.432 95.6002 11.168 95.6322 10.896 95.5042C10.432 95.2962 10 95.0162 9.6 94.6642C9.344 94.4402 8.976 94.0882 8.496 93.6082C8.16 93.7202 7.808 93.7922 7.44 93.8242C7.072 93.8402 6.736 93.7442 6.432 93.5362C6.176 93.3922 5.976 93.2002 5.832 92.9602C5.688 92.7202 5.592 92.4562 5.544 92.1682C5.496 91.8802 5.52 91.6002 5.616 91.3282C5.712 91.0562 5.872 90.8242 6.096 90.6322C6.368 90.4082 6.656 90.2482 6.96 90.1522C7.264 90.0562 7.592 90.0082 7.944 90.0082C8.312 90.0082 8.64 90.0642 8.928 90.1762C9.264 90.3042 9.552 90.4562 9.792 90.6322C9.872 90.2642 9.936 89.8642 9.984 89.4322C10.032 89.0162 10.04 88.4402 10.008 87.7042C9.992 87.0482 9.896 86.2962 9.72 85.4482C9.56 84.6162 9.296 83.6802 8.928 82.6402C8.912 82.6242 8.88 82.5362 8.832 82.3762C8.736 82.1042 8.68 81.9442 8.664 81.8962C8.568 81.6722 8.504 81.5122 8.472 81.4162C8.44 81.3202 8.4 81.2242 8.352 81.1282C8.32 81.0482 8.328 80.9602 8.376 80.8642C8.424 80.7522 8.48 80.6882 8.544 80.6722ZM7.536 90.6562L7.56 90.6082C7.08 90.6882 6.744 90.8642 6.552 91.1362C6.36 91.4242 6.296 91.7202 6.36 92.0242C6.424 92.3442 6.616 92.6082 6.936 92.8162C7.24 93.0242 7.656 93.0962 8.184 93.0322C8.04 92.7762 8.016 92.5842 8.112 92.4562C8.208 92.3282 8.416 92.4002 8.736 92.6722C8.896 92.5282 9.072 92.3362 9.264 92.0962C9.44 91.8882 9.584 91.6242 9.696 91.3042C9.392 91.0802 9.056 90.8882 8.688 90.7282C8.32 90.5682 7.936 90.5442 7.536 90.6562ZM11.4 94.8562C11.512 94.2642 11.44 93.7122 11.184 93.2002C10.912 92.6722 10.6 92.1922 10.248 91.7602C9.928 92.3042 9.568 92.7762 9.168 93.1762C9.504 93.4962 9.848 93.8162 10.2 94.1362C10.552 94.4402 10.952 94.6802 11.4 94.8562ZM8.544 65.6617L8.856 65.7097C9.08 65.6297 9.224 65.7017 9.288 65.9257C9.288 65.9577 9.36 66.1737 9.504 66.5737C9.792 67.3897 9.976 67.9177 10.056 68.1577C10.456 69.3577 10.704 70.0937 10.8 70.3657C11.12 71.2777 11.408 72.1257 11.664 72.9097C11.696 72.9897 11.824 73.4217 12.048 74.2057C12.128 74.4457 12.232 74.8217 12.36 75.3337C12.392 75.4617 12.44 75.6457 12.504 75.8857C12.552 76.1097 12.584 76.2617 12.6 76.3417C12.632 76.5657 12.664 76.9017 12.696 77.3497C12.712 77.7017 12.6 78.0137 12.36 78.2857C12.2 78.4457 12.008 78.5017 11.784 78.4537C11.608 78.4217 11.416 78.3577 11.208 78.2617C10.712 78.0057 10.24 77.6777 9.792 77.2777L8.496 76.1257C8.864 77.9657 9.488 79.7097 10.368 81.3577C10.416 81.4377 10.464 81.5337 10.512 81.6457C10.56 81.7577 10.568 81.8617 10.536 81.9577C10.52 82.0377 10.472 82.1177 10.392 82.1977C10.328 82.2617 10.224 82.2857 10.08 82.2697C9.328 81.9017 8.664 81.4297 8.088 80.8537C7.576 80.3417 7.024 79.7497 6.432 79.0777C6.304 78.9337 6.264 78.7897 6.312 78.6457C6.36 78.4857 6.48 78.3977 6.672 78.3817C6.976 78.6857 7.416 79.1417 7.992 79.7497C8.456 80.2297 8.92 80.6617 9.384 81.0457C8.968 80.1817 8.608 79.3337 8.304 78.5017C8 77.6377 7.784 76.7497 7.656 75.8377C7.624 75.6937 7.632 75.5817 7.68 75.5017C7.728 75.4057 7.8 75.3337 7.896 75.2857C7.992 75.2377 8.096 75.2137 8.208 75.2137C8.32 75.2137 8.424 75.2617 8.52 75.3577C8.872 75.6457 9.128 75.8697 9.288 76.0297C9.448 76.1897 9.704 76.4137 10.056 76.7017C10.296 76.9097 10.568 77.1097 10.872 77.3017C11.192 77.5257 11.488 77.6857 11.76 77.7817C11.808 77.1577 11.744 76.5257 11.568 75.8857C11.344 75.0537 11.176 74.4377 11.064 74.0377C11 73.8137 10.952 73.6537 10.92 73.5577C10.824 73.2857 10.768 73.1257 10.752 73.0777C10.448 72.0697 10.088 70.9897 9.672 69.8377C8.856 67.5337 8.416 66.2937 8.352 66.1177C8.32 66.0377 8.328 65.9497 8.376 65.8537C8.424 65.7417 8.48 65.6777 8.544 65.6617ZM8.52 49.1017L8.856 49.2217C8.936 49.1897 9.016 49.1977 9.096 49.2457C9.176 49.2937 9.232 49.3657 9.264 49.4617L9.408 49.8457C9.536 50.1977 9.656 50.5417 9.768 50.8777L10.272 52.3897C10.336 52.5817 10.432 52.8857 10.56 53.3017C10.688 53.7017 10.792 54.0137 10.872 54.2377C10.952 54.4937 11.072 54.8937 11.232 55.4377C11.264 55.5497 11.368 55.9337 11.544 56.5897C11.576 56.6857 11.624 56.8457 11.688 57.0697C11.736 57.2777 11.776 57.4377 11.808 57.5497L11.952 58.1257C12.144 58.9257 12.296 59.6697 12.408 60.3577C12.504 60.9337 12.552 61.3897 12.552 61.7257C12.552 62.0617 12.52 62.2937 12.456 62.4217C12.376 62.5817 12.296 62.6937 12.216 62.7577C12.168 62.7737 12.096 62.7977 12 62.8297C11.888 62.8617 11.72 62.8297 11.496 62.7337C11.24 62.6377 10.92 62.4617 10.536 62.2057C10.088 61.9177 9.544 61.5097 8.904 60.9817C9.192 61.9577 9.552 62.9177 9.984 63.8617C10.432 64.8377 10.784 65.7977 11.04 66.7417L11.136 67.3897C11.184 67.6137 11.096 67.7897 10.872 67.9177C10.696 68.0137 10.52 67.9977 10.344 67.8697C10.184 67.7417 10.04 67.6217 9.912 67.5097C9.352 66.9977 8.856 66.5177 8.424 66.0697C7.96 65.5897 7.528 65.0457 7.128 64.4377C7.064 64.3737 7.016 64.2857 6.984 64.1737C6.952 64.0777 6.952 63.9897 6.984 63.9097C7.016 63.8297 7.064 63.7817 7.128 63.7657C7.208 63.7337 7.304 63.7417 7.416 63.7897C7.848 64.3977 8.304 64.9737 8.784 65.5177C9.216 66.0137 9.736 66.5257 10.344 67.0537C10.2 66.4937 10.032 65.9737 9.84 65.4937C9.712 65.1577 9.504 64.6537 9.216 63.9817C9.072 63.6457 8.872 63.1417 8.616 62.4697C8.408 61.9257 8.248 61.4057 8.136 60.9097C8.072 60.7177 8.048 60.5017 8.064 60.2617C8.08 60.0217 8.224 59.9017 8.496 59.9017C8.576 59.9017 8.672 59.9497 8.784 60.0457C8.896 60.1417 8.952 60.1977 8.952 60.2137L9.744 60.8617C10.016 61.0857 10.28 61.2777 10.536 61.4377C10.616 61.4857 10.736 61.5577 10.896 61.6537C11.04 61.7497 11.144 61.8217 11.208 61.8697C11.4 61.9977 11.544 62.0697 11.64 62.0857C11.72 61.9097 11.72 61.5577 11.64 61.0297C11.592 60.6297 11.48 60.0057 11.304 59.1577C11.192 58.6137 11.008 57.8377 10.752 56.8297C10.544 55.9977 10.304 55.1817 10.032 54.3817L9.84 53.8537C9.728 53.5177 9.584 53.1097 9.408 52.6297C9.36 52.4857 9.272 52.2457 9.144 51.9097C9.016 51.5577 8.92 51.2777 8.856 51.0697C8.568 50.2537 8.392 49.7577 8.328 49.5817C8.296 49.4697 8.304 49.3737 8.352 49.2937C8.4 49.1817 8.456 49.1177 8.52 49.1017ZM8.49599 34.5949L8.592 34.6669C8.704 34.6349 8.79999 34.6429 8.87999 34.6909C8.976 34.7389 9.032 34.7949 9.048 34.8589C9.048 34.8909 9.12 35.1069 9.264 35.5069C9.552 36.3229 9.736 36.8509 9.816 37.0909C10.216 38.2909 10.464 39.0269 10.56 39.2989C10.88 40.2109 11.168 41.0589 11.424 41.8429C11.456 41.9229 11.584 42.3549 11.808 43.1389C11.888 43.3789 11.992 43.7549 12.12 44.2669C12.152 44.3949 12.2 44.5709 12.264 44.7949C12.312 45.0189 12.344 45.1789 12.36 45.2749C12.424 45.6749 12.464 46.0109 12.48 46.2829C12.496 46.6349 12.376 46.9469 12.12 47.2189C11.96 47.3789 11.768 47.4349 11.544 47.3869C11.368 47.3549 11.176 47.2909 10.968 47.1949C10.648 47.0349 10.36 46.8429 10.104 46.6189L9.312 45.9709C9.408 46.2909 9.512 46.7069 9.624 47.2189C9.72 47.6509 9.792 48.0589 9.84 48.4429C9.92 49.0189 9.96 49.3549 9.96 49.4509C9.992 49.7389 10.016 49.9549 10.032 50.0989C10.368 50.3869 10.664 50.6349 10.92 50.8429C11.16 51.0349 11.288 51.1389 11.304 51.1549C11.384 51.2349 11.424 51.3229 11.424 51.4189C11.424 51.4829 11.4 51.5549 11.352 51.6349C11.208 51.8109 11.048 51.8349 10.872 51.7069L10.824 51.6589C10.776 51.6269 10.712 51.5789 10.632 51.5149C10.552 51.4509 10.472 51.3869 10.392 51.3229C10.104 51.0829 9.768 50.7949 9.384 50.4589C9.272 50.3629 9.08 50.1949 8.808 49.9549C8.536 49.7309 8.328 49.5549 8.184 49.4269C7.816 49.1069 7.496 48.7949 7.224 48.4909C7.08 48.3149 7.088 48.1549 7.248 48.0109C7.424 47.8669 7.584 47.8749 7.728 48.0349C7.904 48.2269 8.12 48.4429 8.376 48.6829C8.76 49.0349 9.048 49.2909 9.24 49.4509C9.224 49.3389 9.184 48.9789 9.12 48.3709C9.072 47.9389 9 47.5149 8.904 47.0989C8.824 46.7469 8.712 46.3229 8.568 45.8269C8.456 45.4269 8.296 45.0749 8.088 44.7709L7.8 44.4829C7.72 44.4029 7.584 44.2829 7.392 44.1229C7.2 43.9629 7.064 43.8429 6.984 43.7629C6.904 43.6829 6.864 43.6029 6.864 43.5229C6.864 43.4109 6.896 43.3229 6.96 43.2589C7.04 43.1789 7.12 43.1389 7.2 43.1389C7.296 43.1389 7.376 43.1709 7.44 43.2349C8.192 43.9549 8.888 44.6029 9.528 45.1789C10.168 45.7389 10.896 46.2509 11.712 46.7149C11.76 46.0909 11.696 45.4589 11.52 44.8189C11.296 43.9869 11.128 43.3709 11.016 42.9709C11 42.8269 10.96 42.6669 10.896 42.4909C10.864 42.3949 10.816 42.2349 10.752 42.0109C10.448 41.0029 10.088 39.9229 9.672 38.7709C9.224 37.5069 8.768 36.2669 8.304 35.0509C8.272 34.9709 8.27999 34.8829 8.32799 34.7869C8.376 34.6749 8.432 34.6109 8.49599 34.5949ZM13.176 34.7996L13.128 34.8956C13.128 35.1836 13.104 35.3756 13.056 35.4716C13.008 35.5516 12.944 35.6236 12.864 35.6876C12.656 35.8956 12.4 35.9756 12.096 35.9276C11.84 35.8796 11.544 35.7436 11.208 35.5196C10.904 35.3116 10.584 35.0396 10.248 34.7036L9.264 33.7196C9.152 33.5916 8.96 33.3916 8.688 33.1196C8.512 32.9436 8.344 32.7916 8.184 32.6636C8.216 32.8876 8.288 33.1996 8.4 33.5996C8.512 33.9996 8.68 34.4316 8.904 34.8956C8.984 35.1196 8.928 35.2636 8.736 35.3276C8.544 35.3916 8.392 35.3356 8.28 35.1596C8.248 35.0956 8.2 34.9836 8.136 34.8236C8.072 34.6636 8.02399 34.5436 7.99199 34.4636C7.864 34.1756 7.768 33.8876 7.70399 33.5996C7.63999 33.3116 7.59199 33.0316 7.56 32.7596C7.528 32.4876 7.552 32.2796 7.632 32.1356C7.712 31.9756 7.83199 31.8796 7.99199 31.8476C8.21599 31.8156 8.45599 31.9116 8.71199 32.1356C8.936 32.3276 9.304 32.6876 9.816 33.2156C9.928 33.3436 10.144 33.5676 10.464 33.8876C10.736 34.1596 11 34.3996 11.256 34.6076C11.512 34.8156 11.752 34.9836 11.976 35.1116C12.2 35.2396 12.36 35.2476 12.456 35.1356C12.552 34.9916 12.528 34.5436 12.384 33.7916C12.24 33.0716 12 32.0796 11.664 30.8156C11.376 29.7596 10.928 28.2876 10.32 26.3996C9.80799 24.7996 9.14399 22.9116 8.32799 20.7356C8.26399 20.5276 8.33599 20.3836 8.54399 20.3036C8.75199 20.2236 8.89599 20.2956 8.97599 20.5196L9.19199 21.1196C9.33599 21.5196 9.52799 22.0476 9.76799 22.7036C10.008 23.3596 10.272 24.1036 10.56 24.9356C10.848 25.7676 11.136 26.6316 11.424 27.5276C11.712 28.4236 12.008 29.3916 12.312 30.4316C12.52 31.1516 12.696 31.8476 12.84 32.5196C12.984 33.1916 13.072 33.6636 13.104 33.9356C13.152 34.3036 13.176 34.5916 13.176 34.7996ZM9.23999 19.3267L9.23999 19.3027C9.11199 19.1747 9.06399 19.0387 9.09599 18.8947C9.12799 18.7507 9.12799 18.6147 9.09599 18.4867C9.11199 17.6707 9.11199 16.8707 9.09599 16.0867C9.07999 15.3027 9.10399 14.5027 9.16799 13.6867C9.24799 13.5747 9.36799 13.5267 9.52799 13.5427L10.032 13.6147C9.93599 14.4307 9.90399 15.2867 9.93599 16.1827C9.96799 17.0307 9.96799 17.8867 9.93599 18.7507C9.93599 18.8787 9.89599 19.0227 9.81599 19.1827C9.75199 19.3267 9.55999 19.3747 9.23999 19.3267ZM32.52 111.973L32.568 112.021C32.792 111.941 32.936 112.013 33 112.237L33.216 112.837C33.36 113.237 33.552 113.765 33.792 114.421C34.096 115.237 34.36 115.965 34.584 116.605C34.824 117.277 35.096 118.101 35.4 119.077C35.496 119.397 35.568 119.629 35.616 119.773L35.832 120.421C36.088 121.173 36.272 121.765 36.384 122.197C36.528 122.725 36.6 123.181 36.6 123.565C36.6 124.045 36.456 124.381 36.168 124.573C35.896 124.797 35.568 124.813 35.184 124.621C34.8 124.429 34.416 124.165 34.032 123.829C33.696 123.525 33.336 123.173 32.952 122.773C32.616 122.405 32.36 122.149 32.184 122.005C32.184 122.085 32.248 122.317 32.376 122.701C32.52 123.117 32.664 123.517 32.808 123.901C32.968 124.333 33.136 124.741 33.312 125.125C33.488 125.509 33.608 125.773 33.672 125.917C33.784 126.125 33.952 126.421 34.176 126.805C34.352 127.093 34.496 127.405 34.608 127.741C34.672 127.901 34.648 128.053 34.536 128.197C34.424 128.341 34.28 128.373 34.104 128.293C33.832 128.229 33.552 128.117 33.264 127.957L32.448 127.525C32.544 127.877 32.664 128.205 32.808 128.509C32.904 128.717 33.064 129.029 33.288 129.445C33.512 129.861 33.672 130.173 33.768 130.381C33.896 130.637 34.024 130.957 34.152 131.341C34.152 131.469 34.128 131.565 34.08 131.629C34.032 131.693 33.96 131.741 33.864 131.773C33.768 131.805 33.672 131.805 33.576 131.773C33.464 131.741 33.376 131.693 33.312 131.629C32.88 131.357 32.432 131.053 31.968 130.717C31.52 130.397 31.12 130.037 30.768 129.637C30.688 129.589 30.648 129.525 30.648 129.445C30.648 129.365 30.672 129.293 30.72 129.229C30.768 129.165 30.824 129.109 30.888 129.061C30.968 129.013 31.048 129.021 31.128 129.085L32.136 129.949C32.424 130.189 32.784 130.461 33.216 130.765C32.864 130.093 32.6 129.597 32.424 129.277C32.168 128.797 31.976 128.277 31.848 127.717C31.784 127.525 31.784 127.333 31.848 127.141C31.912 126.965 32.056 126.837 32.28 126.757C32.552 126.805 32.808 126.901 33.048 127.045C33.368 127.237 33.616 127.373 33.792 127.453C33.184 126.397 32.664 125.349 32.232 124.309C32.216 124.277 32.2 124.229 32.184 124.165C32.152 124.101 32.12 124.029 32.088 123.949C32.04 123.853 32 123.757 31.968 123.661C31.856 123.357 31.76 123.029 31.68 122.677C31.6 122.341 31.576 122.029 31.608 121.741C31.64 121.437 31.784 121.277 32.04 121.261C32.152 121.245 32.304 121.293 32.496 121.405C32.688 121.517 32.896 121.677 33.12 121.885C33.264 122.013 33.504 122.245 33.84 122.581L34.632 123.373C34.888 123.597 35.128 123.765 35.352 123.877C35.576 123.989 35.72 124.013 35.784 123.949C35.912 123.853 35.96 123.645 35.928 123.325C35.896 123.005 35.824 122.645 35.712 122.245C35.632 121.973 35.496 121.549 35.304 120.973C35.272 120.877 35.136 120.493 34.896 119.821C34.528 118.685 34.144 117.541 33.744 116.389C33.584 115.941 33.344 115.269 33.024 114.373C32.704 113.461 32.472 112.813 32.328 112.429C32.296 112.349 32.304 112.261 32.352 112.165C32.4 112.053 32.456 111.989 32.52 111.973ZM42.912 119.235L43.056 119.475C43.024 119.763 42.944 120.011 42.816 120.219C42.672 120.443 42.496 120.611 42.288 120.723C42.048 120.851 41.816 120.939 41.592 120.987C41.352 121.035 41.112 121.035 40.872 120.987C40.312 120.843 39.784 120.499 39.288 119.955C38.776 119.395 38.32 118.771 37.92 118.083C37.472 117.331 37.12 116.627 36.864 115.971C36.576 115.251 36.36 114.651 36.216 114.171C35.976 113.387 35.808 112.675 35.712 112.035C35.648 111.619 35.568 110.979 35.472 110.115L33.888 108.531C33.52 108.163 33.048 107.707 32.472 107.163C32.696 107.771 32.944 108.507 33.216 109.371C33.408 109.979 33.552 110.483 33.648 110.883C33.728 111.235 33.784 111.555 33.816 111.843C33.848 112.083 33.848 112.267 33.816 112.395C33.784 112.523 33.744 112.611 33.696 112.659L33.576 112.779C33.512 112.827 33.4 112.851 33.24 112.851C33.096 112.851 32.92 112.795 32.712 112.683C32.52 112.571 32.272 112.379 31.968 112.107C31.68 111.835 31.352 111.435 30.984 110.907C30.904 110.827 30.88 110.739 30.912 110.643C30.928 110.547 30.976 110.475 31.056 110.427C31.232 110.299 31.392 110.323 31.536 110.499C31.68 110.723 31.832 110.923 31.992 111.099C32.216 111.355 32.368 111.523 32.448 111.603C32.56 111.715 32.696 111.835 32.856 111.963C32.952 112.043 33.048 112.099 33.144 112.131C33.16 111.987 33.12 111.683 33.024 111.219C32.96 110.899 32.824 110.395 32.616 109.707C32.424 109.067 32.232 108.451 32.04 107.859C31.848 107.315 31.616 106.675 31.344 105.939C31.28 105.779 31.32 105.659 31.464 105.579C31.624 105.499 31.76 105.507 31.872 105.603L32.136 105.867C32.2 105.931 32.32 106.043 32.496 106.203C32.672 106.363 32.8 106.483 32.88 106.563C32.992 106.659 33.176 106.827 33.432 107.067C33.672 107.307 33.856 107.491 33.984 107.619C34.56 108.163 35.016 108.603 35.352 108.939C35.288 108.267 35.232 107.787 35.184 107.499C35.152 107.307 35.104 107.003 35.04 106.587C34.976 106.155 34.936 105.891 34.92 105.795C34.84 105.251 34.704 104.563 34.512 103.731C34.336 102.979 34.12 102.139 33.864 101.211C33.512 99.8345 33.176 98.7545 32.856 97.9705C32.552 97.1865 32.384 96.7945 32.352 96.7945C32.32 96.6825 32.328 96.5865 32.376 96.5065C32.424 96.3945 32.48 96.3305 32.544 96.3145C32.768 96.2345 32.912 96.2905 32.976 96.4825C32.992 96.4985 33.16 96.9065 33.48 97.7065C33.8 98.5065 34.136 99.5865 34.488 100.947C34.808 102.019 35.048 102.979 35.208 103.827C35.4 104.787 35.536 105.547 35.616 106.107C35.712 106.779 35.784 107.403 35.832 107.979C35.896 108.699 35.952 109.259 36 109.659L36.624 110.331L37.272 110.979C40.984 114.931 42.864 117.667 42.912 119.187L42.912 119.235ZM36.36 111.099C36.408 111.547 36.488 112.019 36.6 112.515C36.76 113.187 36.936 113.819 37.128 114.411C37.32 114.987 37.576 115.643 37.896 116.379C38.184 117.019 38.496 117.619 38.832 118.179C39.152 118.707 39.512 119.171 39.912 119.571C40.296 119.955 40.688 120.195 41.088 120.291C41.376 120.355 41.664 120.299 41.952 120.123C42.24 119.963 42.384 119.731 42.384 119.427C42.368 119.011 42.176 118.483 41.808 117.843C41.424 117.155 40.96 116.459 40.416 115.755C39.792 114.939 39.144 114.155 38.472 113.403C37.8 112.635 37.096 111.867 36.36 111.099ZM32.544 82.9154L32.784 83.0114C32.992 82.9474 33.136 83.0194 33.216 83.2274L33.6 84.2834C33.664 84.4594 33.76 84.7074 33.888 85.0274C33.984 85.2674 34.032 85.3954 34.032 85.4114L34.008 85.4114C34.36 86.4674 34.608 87.4594 34.752 88.3874C34.896 89.2834 34.968 90.0594 34.968 90.7154C34.968 91.3074 34.936 91.7874 34.872 92.1554C34.808 92.5394 34.736 92.8834 34.656 93.1874L34.776 93.3554C34.984 93.7394 35.296 94.3314 35.712 95.1314C36.016 95.7234 36.184 96.3714 36.216 97.0754C36.248 97.2674 36.216 97.4434 36.12 97.6034C35.992 97.8274 35.904 97.9954 35.856 98.1074C36.512 98.6994 37.216 99.2354 37.968 99.7154C38.464 100.035 39.208 100.499 40.2 101.107C40.264 101.171 40.32 101.219 40.368 101.251L40.584 101.395C40.664 101.443 40.712 101.499 40.728 101.563C40.76 101.643 40.76 101.715 40.728 101.779C40.632 101.907 40.52 101.971 40.392 101.971C40.264 101.971 40.144 101.947 40.032 101.899C39.952 101.867 39.832 101.803 39.672 101.707C39.512 101.611 39.4 101.547 39.336 101.515C37.752 100.475 36.192 99.4194 34.656 98.3474C33.168 97.3074 31.68 96.1394 30.192 94.8434C29.968 94.6194 29.736 94.4114 29.496 94.2194C29.256 94.0274 29.024 93.8194 28.8 93.5954C28.72 93.4834 28.68 93.3874 28.68 93.3074C28.68 93.1794 28.688 93.0914 28.704 93.0434C28.736 92.9634 28.784 92.9234 28.848 92.9234C28.944 92.9234 29.032 92.9554 29.112 93.0194C29.8 93.5794 30.416 94.1074 30.96 94.6034C31.488 95.0994 32.128 95.6114 32.88 96.1394C32.688 95.8834 32.456 95.5234 32.184 95.0594C31.832 94.4514 31.552 93.9154 31.344 93.4514C31.088 92.8754 30.896 92.3074 30.768 91.7474C30.64 91.1874 30.664 90.7394 30.84 90.4034C30.888 90.3394 30.96 90.2914 31.056 90.2594C31.184 90.2274 31.288 90.2114 31.368 90.2114C31.448 90.2114 31.568 90.2274 31.728 90.2594C32.176 90.4834 32.56 90.7794 32.88 91.1474C33.2 91.5154 33.544 91.9314 33.912 92.3954C33.992 92.0274 34.04 91.6114 34.056 91.1474C34.088 90.6674 34.064 90.1154 33.984 89.4914C33.904 88.8674 33.784 88.1714 33.624 87.4034C33.464 86.6354 33.224 85.7954 32.904 84.8834C32.904 84.8514 32.88 84.7634 32.832 84.6194C32.816 84.6034 32.752 84.4514 32.64 84.1634C32.544 83.9394 32.48 83.7714 32.448 83.6594C32.416 83.5474 32.376 83.4434 32.328 83.3474C32.264 83.1234 32.336 82.9794 32.544 82.9154ZM31.56 90.9314C31.64 91.8594 31.872 92.7634 32.256 93.6434C32.64 94.5554 33.152 95.3714 33.792 96.0914C33.776 95.6274 33.776 95.1714 33.792 94.7234C33.824 94.1154 33.856 93.6594 33.888 93.3554C33.664 93.0514 33.312 92.5954 32.832 91.9874C32.48 91.5394 32.056 91.1874 31.56 90.9314ZM35.544 97.5074L35.592 97.5794C35.64 96.9874 35.552 96.4194 35.328 95.8754C35.12 95.3634 34.864 94.8434 34.56 94.3154C34.528 94.6994 34.512 95.0034 34.512 95.2274C34.512 95.5474 34.536 95.8514 34.584 96.1394C34.632 96.4274 34.728 96.6914 34.872 96.9314C35.016 97.1714 35.24 97.3634 35.544 97.5074ZM32.52 65.1155L32.688 65.2835C32.768 65.2515 32.848 65.2595 32.928 65.3075C33.024 65.3555 33.08 65.4115 33.096 65.4755C33.096 65.4915 33.168 65.7075 33.312 66.1235C33.456 66.5395 33.648 67.0675 33.888 67.7075C34.128 68.3475 34.392 69.0915 34.68 69.9395C34.968 70.7875 35.256 71.6515 35.544 72.5315C35.832 73.4275 36.128 74.3955 36.432 75.4355C36.64 76.1555 36.816 76.8515 36.96 77.5235C37.104 78.1955 37.192 78.6675 37.224 78.9395C37.272 79.2915 37.296 79.5795 37.296 79.8035C37.296 80.0915 37.272 80.2835 37.224 80.3795C37.176 80.4755 37.112 80.5475 37.032 80.5955C36.84 80.7715 36.624 80.8435 36.384 80.8115C36.128 80.7795 35.872 80.6835 35.616 80.5235C35.328 80.3315 35.048 80.1155 34.776 79.8755C34.584 79.6995 34.296 79.4195 33.912 79.0355L33.888 79.0355L32.544 77.6915L33.96 83.1875C34.168 83.2355 34.312 83.2675 34.392 83.2835C34.584 83.3315 34.768 83.4035 34.944 83.4995C35.2 83.6275 35.392 83.7315 35.52 83.8115C35.696 83.9235 35.848 84.0675 35.976 84.2435C36.072 84.4035 36.136 84.5315 36.168 84.6275C36.216 84.7715 36.24 84.9155 36.24 85.0595C36.24 85.2035 36.2 85.3395 36.12 85.4675C36.056 85.5955 35.936 85.6915 35.76 85.7555C35.552 85.8195 35.264 85.7475 34.896 85.5395C34.576 85.3475 34.192 85.0675 33.744 84.6995C33.376 84.3955 32.968 84.0195 32.52 83.5715C32.216 83.2675 31.856 82.8915 31.44 82.4435C31.36 82.3635 31.32 82.2755 31.32 82.1795C31.32 82.0995 31.36 82.0195 31.44 81.9395C31.504 81.8755 31.584 81.8435 31.68 81.8435C31.76 81.8435 31.84 81.8835 31.92 81.9635C32.064 82.1235 32.28 82.3475 32.568 82.6355L33.192 83.2595L31.464 76.5875C31.448 76.3955 31.504 76.2675 31.632 76.2035C31.76 76.1235 31.896 76.1475 32.04 76.2755C32.552 76.7555 33.032 77.2355 33.48 77.7155C34.072 78.3395 34.488 78.7635 34.728 78.9875C35.144 79.3715 35.48 79.6515 35.736 79.8275C36.024 80.0195 36.256 80.0755 36.432 79.9955C36.528 79.8515 36.504 79.4035 36.36 78.6515C36.216 77.8835 35.976 76.8835 35.64 75.6515C35.336 74.4995 34.888 73.0195 34.296 71.2115C33.784 69.6115 33.12 67.7235 32.304 65.5475C32.224 65.3235 32.296 65.1795 32.52 65.1155ZM35.472 84.6755L35.472 84.6995C35.296 84.4755 35.048 84.3075 34.728 84.1955C34.344 84.0515 34.064 83.9635 33.888 83.9315C34.288 84.2835 34.648 84.5715 34.968 84.7955C35.288 85.0195 35.504 85.1395 35.616 85.1555C35.648 84.9635 35.6 84.8035 35.472 84.6755ZM32.544 33.4587L32.496 33.5547C32.576 33.5227 32.656 33.5307 32.736 33.5787C32.832 33.6267 32.888 33.6827 32.904 33.7467C32.936 33.7787 33.008 33.9707 33.12 34.3227C33.232 34.6747 33.4 35.1547 33.624 35.7627C33.752 36.0187 33.896 36.3787 34.056 36.8427C34.232 37.3227 34.4 37.8347 34.56 38.3787C34.576 38.4587 34.76 39.0587 35.112 40.1787C35.368 41.0107 35.552 41.6267 35.664 42.0267C35.808 42.5547 35.976 43.1147 36.168 43.7067C36.328 44.2347 36.472 44.6667 36.6 45.0027L37.584 45.6267C38.368 46.1227 39.216 46.6987 40.128 47.3547C40.976 47.9627 41.752 48.6187 42.456 49.3227C43.064 49.8827 43.472 50.4427 43.68 51.0027C43.904 51.5787 43.944 52.0427 43.8 52.3947C43.656 52.7627 43.344 52.9547 42.864 52.9707C42.384 52.9867 41.736 52.7227 40.92 52.1787C39.752 51.3307 38.776 50.3227 37.992 49.1547C37.192 47.9707 36.496 46.7467 35.904 45.4827C35.264 44.9867 34.64 44.5627 34.032 44.2107C33.6 43.9547 32.936 43.5707 32.04 43.0587C32.392 43.8747 32.8 44.6747 33.264 45.4587C33.68 46.1627 34.096 46.9547 34.512 47.8347C34.608 48.0747 34.664 48.2107 34.68 48.2427C34.744 48.3867 34.792 48.5307 34.824 48.6747C34.856 48.8187 34.856 48.9627 34.824 49.1067C34.808 49.2347 34.736 49.3627 34.608 49.4907C34.352 49.6827 34.072 49.7147 33.768 49.5867C33.464 49.4587 33.208 49.3147 33 49.1547C32.264 48.5627 31.656 47.8187 31.176 46.9227C30.696 46.0427 30.456 45.1067 30.456 44.1147C30.424 43.7787 30.496 43.4747 30.672 43.2027C30.784 43.0267 30.968 42.7627 31.224 42.4107L30.864 42.1227C30.704 41.9947 30.584 41.9067 30.504 41.8587L30.36 41.6667C30.296 41.5707 30.296 41.4507 30.36 41.3067C30.44 41.1627 30.56 41.1227 30.72 41.1867C30.8 41.2187 30.872 41.2667 30.936 41.3307L30.912 41.3307C31.936 42.0027 32.704 42.4987 33.216 42.8187C34.24 43.4587 35.008 43.9467 35.52 44.2827L35.664 44.3787C35.408 43.6107 35.168 42.8027 34.944 41.9547C34.752 41.2187 34.512 40.3707 34.224 39.4107C33.984 38.6747 33.696 37.8027 33.36 36.7947C33.056 35.8827 32.72 34.9227 32.352 33.9147C32.32 33.8347 32.328 33.7467 32.376 33.6507C32.424 33.5387 32.48 33.4747 32.544 33.4587ZM32.712 45.9387L32.736 45.9627C32.416 45.3547 32.184 44.8987 32.04 44.5947C31.848 44.1787 31.608 43.7387 31.32 43.2747C31.096 43.8667 31.056 44.4427 31.2 45.0027C31.344 45.5627 31.552 46.1067 31.824 46.6347C32.064 47.0987 32.392 47.5627 32.808 48.0267C33.176 48.4427 33.632 48.7867 34.176 49.0587C34.064 48.5147 33.856 47.9787 33.552 47.4507C33.168 46.7787 32.888 46.2747 32.712 45.9387ZM42.672 50.6427L42.552 50.6427C41.784 49.6827 40.904 48.8507 39.912 48.1467C38.856 47.4107 37.856 46.7227 36.912 46.0827C37.472 47.2027 38.12 48.2507 38.856 49.2267C39.592 50.2027 40.48 51.0427 41.52 51.7467C41.856 51.9707 42.168 52.1147 42.456 52.1787C42.744 52.2427 42.96 52.2427 43.104 52.1787C43.248 52.0987 43.296 51.9387 43.248 51.6987C43.2 51.4427 43.008 51.0907 42.672 50.6427ZM36.12 27.5412L36.144 27.7572C36.144 28.0132 36.12 28.2292 36.072 28.4052C36.024 28.5492 35.976 28.6772 35.928 28.7892C35.88 28.9012 35.824 28.9732 35.76 29.0052C35.712 29.0372 35.656 29.0692 35.592 29.1012C35.16 29.2772 34.664 29.1332 34.104 28.6692C33.56 28.2212 32.912 27.5972 32.16 26.7972L31.8 26.4372C31.64 26.2772 31.528 26.1572 31.464 26.0772C31.48 26.1412 31.52 26.2612 31.584 26.4372C31.632 26.5972 31.672 26.7252 31.704 26.8212C31.832 27.2052 31.936 27.5012 32.016 27.7092C32.176 28.1252 32.296 28.4452 32.376 28.6692C32.504 29.0052 32.624 29.3172 32.736 29.6052C32.832 29.8932 32.984 30.3172 33.192 30.8772C33.384 31.4212 33.52 31.8052 33.6 32.0292C33.792 32.5412 33.944 33.0212 34.056 33.4692C34.152 33.8212 34.2 34.0692 34.2 34.2132C34.2 34.3412 34.16 34.4452 34.08 34.5252C33.84 34.7492 33.56 34.7972 33.24 34.6692C32.936 34.5412 32.656 34.3572 32.4 34.1172C32.256 33.9412 32.256 33.7812 32.4 33.6372C32.48 33.5572 32.56 33.5172 32.64 33.5172C32.72 33.5172 32.8 33.5572 32.88 33.6372C33.152 33.8932 33.368 34.0292 33.528 34.0452C33.512 33.9332 33.448 33.7012 33.336 33.3492C33.224 32.9972 33.104 32.6452 32.976 32.2932C32.96 32.2292 32.896 32.0532 32.784 31.7652C32.672 31.4772 32.584 31.2452 32.52 31.0692C32.456 30.8932 32.368 30.6612 32.256 30.3732C32.144 30.0852 32.08 29.9092 32.064 29.8452C31.92 29.4772 31.624 28.6612 31.176 27.3972C30.952 26.8052 30.808 26.3492 30.744 26.0292C30.68 25.7092 30.656 25.4932 30.672 25.3812C30.688 25.2692 30.736 25.1732 30.816 25.0932C31.024 24.9172 31.264 24.9412 31.536 25.1652C31.808 25.3892 32.192 25.7492 32.688 26.2452C32.8 26.3732 33.016 26.5972 33.336 26.9172C33.592 27.1892 33.856 27.4292 34.128 27.6372C34.448 27.8932 34.688 28.0772 34.848 28.1892C35.056 28.3332 35.224 28.3812 35.352 28.3332C35.496 28.2212 35.52 27.7812 35.424 27.0132C35.344 26.3252 35.16 25.3652 34.872 24.1332C34.632 23.0932 34.28 21.7972 33.816 20.2452C33.432 18.9492 32.936 17.5012 32.328 15.9012C32.264 15.6932 32.328 15.5492 32.52 15.4692C32.632 15.4372 32.728 15.4452 32.808 15.4932C32.904 15.5412 32.96 15.5972 32.976 15.6612C33.216 16.2852 33.456 16.9332 33.696 17.6052C33.856 18.0532 34.08 18.7412 34.368 19.6692C34.448 19.9412 34.648 20.6292 34.968 21.7332C35.144 22.3572 35.312 22.9972 35.472 23.6532C35.712 24.6452 35.88 25.4452 35.976 26.0532C36.072 26.6772 36.12 27.1732 36.12 27.5412ZM32.544 0.615466L32.712 0.807466C32.936 0.727466 33.08 0.799466 33.144 1.02347C33.144 1.03947 33.152 1.06347 33.168 1.09547C33.184 1.12747 33.2 1.16747 33.216 1.21547C33.216 1.24747 33.224 1.27947 33.24 1.31147C33.304 1.50347 33.4 1.76747 33.528 2.10347L33.816 2.82347C33.864 2.93547 34.016 3.34347 34.272 4.04747C34.496 4.65547 34.672 5.11947 34.8 5.43947C34.992 5.91947 35.16 6.32747 35.304 6.66347C35.496 7.14347 35.736 7.69547 36.024 8.31947C36.296 8.92747 36.536 9.54347 36.744 10.1675C36.936 10.7595 37.032 11.3115 37.032 11.8235C37.032 12.3355 36.848 12.7115 36.48 12.9515C36.304 13.0795 36.096 13.1195 35.856 13.0715C35.584 13.0235 35.344 12.9435 35.136 12.8315C34.88 12.7035 34.648 12.5595 34.44 12.3995C34.104 12.1435 33.92 11.9995 33.888 11.9675C33.456 11.6155 33.136 11.4475 32.928 11.4635C32.848 11.4635 32.784 11.4875 32.736 11.5355C32.88 11.7915 33.104 12.1995 33.408 12.7595C33.6 13.1275 33.8 13.5755 34.008 14.1035C34.168 14.5355 34.288 14.9195 34.368 15.2555C34.432 15.5755 34.416 15.8155 34.32 15.9755C34.224 16.1355 34.088 16.2315 33.912 16.2635C33.752 16.2795 33.584 16.2795 33.408 16.2635C33.232 16.2315 33.072 16.1835 32.928 16.1195C32.896 16.1035 32.848 16.0795 32.784 16.0475C32.752 16.0315 32.728 16.0155 32.712 15.9995C32.696 15.9995 32.68 15.9915 32.664 15.9755C32.632 15.9755 32.608 15.9675 32.592 15.9515C32.384 15.8395 32.336 15.6875 32.448 15.4955C32.56 15.2875 32.712 15.2395 32.904 15.3515C33.128 15.4475 33.296 15.5115 33.408 15.5435C33.584 15.5915 33.704 15.6075 33.768 15.5915C33.768 15.4795 33.72 15.2795 33.624 14.9915C33.528 14.7035 33.408 14.3915 33.264 14.0555C33.168 13.8315 33.008 13.4795 32.784 12.9995C32.64 12.6955 32.456 12.3595 32.232 11.9915L32.208 11.9915C32.048 12.1995 31.896 12.3275 31.752 12.3755C31.624 12.4235 31.496 12.4315 31.368 12.3995C30.904 12.3355 30.512 11.8555 30.192 10.9595C29.984 10.4315 30.024 10.0715 30.312 9.87947C30.44 9.79947 30.576 9.77547 30.72 9.80747C30.88 9.83947 31.032 9.89547 31.176 9.97547C31.352 10.0715 31.504 10.1755 31.632 10.2875C31.728 10.3675 31.872 10.5035 32.064 10.6955C32.176 10.8075 32.248 10.8875 32.28 10.9355C32.456 10.8075 32.624 10.7435 32.784 10.7435C33.168 10.6955 33.656 10.9115 34.248 11.3915C34.648 11.7275 35.024 11.9755 35.376 12.1355C35.68 12.2795 35.896 12.3115 36.024 12.2315C36.168 12.1515 36.216 11.8875 36.168 11.4395C36.12 10.9595 35.936 10.2955 35.616 9.44747C35.264 8.53547 34.904 7.63147 34.536 6.73547C34.008 5.43947 33.728 4.75147 33.696 4.67147C33.456 4.06347 33.184 3.33547 32.88 2.48747C32.832 2.34347 32.744 2.11147 32.616 1.79147C32.488 1.47147 32.392 1.22347 32.328 1.04747C32.264 0.839466 32.336 0.695466 32.544 0.615466ZM31.56 11.8475L31.56 11.8235C31.624 11.8235 31.68 11.7915 31.728 11.7275C31.76 11.6795 31.824 11.6075 31.92 11.5115C31.888 11.4635 31.816 11.3835 31.704 11.2715C31.512 11.0795 31.344 10.9355 31.2 10.8395C31.152 10.8075 31.088 10.7675 31.008 10.7195C30.928 10.6715 30.88 10.6395 30.864 10.6235C30.88 10.6875 30.904 10.7675 30.936 10.8635C31.08 11.2315 31.208 11.4795 31.32 11.6075C31.432 11.7515 31.512 11.8315 31.56 11.8475ZM56.544 114.459L56.856 114.507C57.08 114.427 57.224 114.499 57.288 114.723C57.288 114.755 57.36 114.971 57.504 115.371C57.792 116.187 57.976 116.715 58.056 116.955C58.456 118.155 58.704 118.891 58.8 119.163C59.12 120.075 59.408 120.923 59.664 121.707C59.696 121.787 59.824 122.219 60.048 123.003C60.128 123.243 60.232 123.619 60.36 124.131C60.392 124.259 60.44 124.443 60.504 124.683C60.552 124.907 60.584 125.059 60.6 125.139C60.632 125.363 60.664 125.699 60.696 126.147C60.712 126.499 60.6 126.811 60.36 127.083C60.2 127.243 60.008 127.299 59.784 127.251C59.608 127.219 59.416 127.155 59.208 127.059C58.712 126.803 58.24 126.475 57.792 126.075L56.496 124.923C56.864 126.763 57.488 128.507 58.368 130.155C58.416 130.235 58.464 130.331 58.512 130.443C58.56 130.555 58.568 130.659 58.536 130.755C58.52 130.835 58.472 130.915 58.392 130.995C58.328 131.059 58.224 131.083 58.08 131.067C57.328 130.699 56.664 130.227 56.088 129.651C55.576 129.139 55.024 128.547 54.432 127.875C54.304 127.731 54.264 127.587 54.312 127.443C54.36 127.283 54.48 127.195 54.672 127.179C54.976 127.483 55.416 127.939 55.992 128.547C56.456 129.027 56.92 129.459 57.384 129.843C56.968 128.979 56.608 128.131 56.304 127.299C56 126.435 55.784 125.547 55.656 124.635C55.624 124.491 55.632 124.379 55.68 124.299C55.728 124.203 55.8 124.131 55.896 124.083C55.992 124.035 56.096 124.011 56.208 124.011C56.32 124.011 56.424 124.059 56.52 124.155C56.872 124.443 57.128 124.667 57.288 124.827C57.448 124.987 57.704 125.211 58.056 125.499C58.296 125.707 58.568 125.907 58.872 126.099C59.192 126.323 59.488 126.483 59.76 126.579C59.808 125.955 59.744 125.323 59.568 124.683C59.344 123.851 59.176 123.235 59.064 122.835C59 122.611 58.952 122.451 58.92 122.355C58.824 122.083 58.768 121.923 58.752 121.875C58.448 120.867 58.088 119.787 57.672 118.635C56.856 116.331 56.416 115.091 56.352 114.915C56.32 114.835 56.328 114.747 56.376 114.651C56.424 114.539 56.48 114.475 56.544 114.459ZM56.544 100.083L56.496 100.131C56.512 100.115 56.56 100.107 56.64 100.107C56.768 100.139 56.856 100.211 56.904 100.323C56.904 100.371 56.96 100.539 57.072 100.827C57.184 101.147 57.328 101.555 57.504 102.051C57.648 102.451 57.84 102.979 58.08 103.635C58.272 104.147 58.496 104.819 58.752 105.651C58.944 106.259 59.12 106.931 59.28 107.667C59.424 108.323 59.496 108.875 59.496 109.323C59.496 109.579 59.456 109.803 59.376 109.995C59.248 110.251 59.056 110.387 58.8 110.403C58.608 110.419 58.384 110.371 58.128 110.259C57.84 110.131 57.576 109.979 57.336 109.803L56.808 109.371C56.712 109.291 56.568 109.155 56.376 108.963L56.016 108.603C56.256 109.547 56.56 110.563 56.928 111.651C57.232 112.563 57.528 113.555 57.816 114.627C57.864 114.739 57.888 114.867 57.888 115.011C57.888 115.155 57.864 115.283 57.816 115.395C57.768 115.507 57.696 115.603 57.6 115.683C57.504 115.747 57.384 115.755 57.24 115.707C56.824 115.515 56.464 115.235 56.16 114.867L55.296 113.787C55.008 113.371 54.792 113.051 54.648 112.827C54.44 112.507 54.264 112.163 54.12 111.795C53.976 111.427 53.88 111.059 53.832 110.691C53.784 110.307 53.808 109.923 53.904 109.539C53.968 109.235 54.128 108.971 54.384 108.747C54.624 108.523 54.912 108.427 55.248 108.459L55.248 108.123C55.248 108.043 55.256 107.971 55.272 107.907C55.304 107.779 55.328 107.691 55.344 107.643C55.36 107.579 55.4 107.515 55.464 107.451C55.512 107.403 55.576 107.395 55.656 107.427C55.976 107.667 56.168 107.819 56.232 107.883C56.456 108.075 56.6 108.203 56.664 108.267C56.744 108.347 56.864 108.451 57.024 108.579C57.104 108.643 57.224 108.755 57.384 108.915C57.72 109.171 57.992 109.363 58.2 109.491C58.424 109.635 58.608 109.691 58.752 109.659C58.768 109.659 58.792 109.643 58.824 109.611C58.92 109.435 58.92 109.059 58.824 108.483C58.744 107.971 58.584 107.299 58.344 106.467C58.152 105.779 57.896 104.971 57.576 104.043C57.368 103.419 57.088 102.651 56.736 101.739C56.72 101.579 56.672 101.427 56.592 101.283L56.448 100.899L56.304 100.539C56.272 100.459 56.28 100.371 56.328 100.275C56.376 100.163 56.448 100.099 56.544 100.083ZM55.464 109.179L55.44 109.275C55.152 109.179 54.936 109.195 54.792 109.323C54.648 109.451 54.552 109.619 54.504 109.827C54.456 110.067 54.44 110.307 54.456 110.547C54.488 110.819 54.536 111.035 54.6 111.195C54.856 111.915 55.216 112.587 55.68 113.211C56.144 113.835 56.648 114.411 57.192 114.939C56.984 114.011 56.704 113.051 56.352 112.059C56.048 111.211 55.752 110.251 55.464 109.179ZM56.544 86.7474L56.784 86.8434C56.992 86.7794 57.136 86.8514 57.216 87.0594L57.6 88.1154C57.664 88.2914 57.76 88.5394 57.888 88.8594C57.984 89.0994 58.032 89.2274 58.032 89.2434L58.008 89.2434C58.36 90.2994 58.608 91.2914 58.752 92.2194C58.896 93.1154 58.968 93.8914 58.968 94.5474C58.968 95.1394 58.936 95.6194 58.872 95.9874C58.808 96.3714 58.736 96.7154 58.656 97.0194L58.776 97.1874C58.984 97.5714 59.296 98.1634 59.712 98.9634C60.016 99.5554 60.184 100.203 60.216 100.907C60.248 101.099 60.216 101.275 60.12 101.435C59.992 101.659 59.904 101.827 59.856 101.939C60.512 102.531 61.216 103.067 61.968 103.547C62.464 103.867 63.208 104.331 64.2 104.939C64.264 105.003 64.32 105.051 64.368 105.083L64.584 105.227C64.664 105.275 64.712 105.331 64.728 105.395C64.76 105.475 64.76 105.547 64.728 105.611C64.632 105.739 64.52 105.803 64.392 105.803C64.264 105.803 64.144 105.779 64.032 105.731C63.952 105.699 63.832 105.635 63.672 105.539C63.512 105.443 63.4 105.379 63.336 105.347C61.752 104.307 60.192 103.251 58.656 102.179C57.168 101.139 55.68 99.9714 54.192 98.6754C53.968 98.4514 53.736 98.2434 53.496 98.0514C53.256 97.8594 53.024 97.6514 52.8 97.4274C52.72 97.3154 52.68 97.2194 52.68 97.1394C52.68 97.0114 52.688 96.9234 52.704 96.8754C52.736 96.7954 52.784 96.7554 52.848 96.7554C52.944 96.7554 53.032 96.7874 53.112 96.8514C53.8 97.4114 54.416 97.9394 54.96 98.4354C55.488 98.9314 56.128 99.4434 56.88 99.9714C56.688 99.7154 56.456 99.3554 56.184 98.8914C55.832 98.2834 55.552 97.7474 55.344 97.2834C55.088 96.7074 54.896 96.1394 54.768 95.5794C54.64 95.0194 54.664 94.5714 54.84 94.2354C54.888 94.1714 54.96 94.1234 55.056 94.0914C55.184 94.0594 55.288 94.0434 55.368 94.0434C55.448 94.0434 55.568 94.0594 55.728 94.0914C56.176 94.3154 56.56 94.6114 56.88 94.9794C57.2 95.3474 57.544 95.7634 57.912 96.2274C57.992 95.8594 58.04 95.4434 58.056 94.9794C58.088 94.4994 58.064 93.9474 57.984 93.3234C57.904 92.6994 57.784 92.0034 57.624 91.2354C57.464 90.4674 57.224 89.6274 56.904 88.7154C56.904 88.6834 56.88 88.5954 56.832 88.4514C56.816 88.4354 56.752 88.2834 56.64 87.9954C56.544 87.7714 56.48 87.6034 56.448 87.4914C56.416 87.3794 56.376 87.2754 56.328 87.1794C56.264 86.9554 56.336 86.8114 56.544 86.7474ZM55.56 94.7634C55.64 95.6914 55.872 96.5954 56.256 97.4754C56.64 98.3874 57.152 99.2034 57.792 99.9234C57.776 99.4594 57.776 99.0034 57.792 98.5554C57.824 97.9474 57.856 97.4914 57.888 97.1874C57.664 96.8834 57.312 96.4274 56.832 95.8194C56.48 95.3714 56.056 95.0194 55.56 94.7634ZM59.544 101.339L59.592 101.411C59.64 100.819 59.552 100.251 59.328 99.7074C59.12 99.1954 58.864 98.6754 58.56 98.1474C58.528 98.5314 58.512 98.8354 58.512 99.0594C58.512 99.3794 58.536 99.6834 58.584 99.9714C58.632 100.259 58.728 100.523 58.872 100.763C59.016 101.003 59.24 101.195 59.544 101.339ZM56.52 68.2035L56.568 68.2515C56.792 68.1715 56.936 68.2435 57 68.4675L57.216 69.0675C57.36 69.4675 57.552 69.9955 57.792 70.6515C58.096 71.4675 58.36 72.1955 58.584 72.8355C58.824 73.5075 59.096 74.3315 59.4 75.3075C59.496 75.6275 59.568 75.8595 59.616 76.0035L59.832 76.6515C60.088 77.4035 60.272 77.9955 60.384 78.4275C60.528 78.9555 60.6 79.4115 60.6 79.7955C60.6 80.2755 60.456 80.6115 60.168 80.8035C59.896 81.0275 59.568 81.0435 59.184 80.8515C58.8 80.6595 58.416 80.3955 58.032 80.0595C57.696 79.7555 57.336 79.4035 56.952 79.0035C56.616 78.6355 56.36 78.3795 56.184 78.2355C56.184 78.3155 56.248 78.5475 56.376 78.9315C56.52 79.3475 56.664 79.7475 56.808 80.1315C56.968 80.5635 57.136 80.9715 57.312 81.3555C57.488 81.7395 57.608 82.0035 57.672 82.1475C57.784 82.3555 57.952 82.6515 58.176 83.0355C58.352 83.3235 58.496 83.6355 58.608 83.9715C58.672 84.1315 58.648 84.2835 58.536 84.4275C58.424 84.5715 58.28 84.6035 58.104 84.5235C57.832 84.4595 57.552 84.3475 57.264 84.1875L56.448 83.7555C56.544 84.1075 56.664 84.4355 56.808 84.7395C56.904 84.9475 57.064 85.2595 57.288 85.6755C57.512 86.0915 57.672 86.4035 57.768 86.6115C57.896 86.8675 58.024 87.1875 58.152 87.5715C58.152 87.6995 58.128 87.7955 58.08 87.8595C58.032 87.9235 57.96 87.9715 57.864 88.0035C57.768 88.0355 57.672 88.0355 57.576 88.0035C57.464 87.9715 57.376 87.9235 57.312 87.8595C56.88 87.5875 56.432 87.2835 55.968 86.9475C55.52 86.6275 55.12 86.2675 54.768 85.8675C54.688 85.8195 54.648 85.7555 54.648 85.6755C54.648 85.5955 54.672 85.5235 54.72 85.4595C54.768 85.3955 54.824 85.3395 54.888 85.2915C54.968 85.2435 55.048 85.2515 55.128 85.3155L56.136 86.1795C56.424 86.4195 56.784 86.6915 57.216 86.9955C56.864 86.3235 56.6 85.8275 56.424 85.5075C56.168 85.0275 55.976 84.5075 55.848 83.9475C55.784 83.7555 55.784 83.5635 55.848 83.3715C55.912 83.1955 56.056 83.0675 56.28 82.9875C56.552 83.0355 56.808 83.1315 57.048 83.2755C57.368 83.4675 57.616 83.6035 57.792 83.6835C57.184 82.6275 56.664 81.5795 56.232 80.5395C56.216 80.5075 56.2 80.4595 56.184 80.3955C56.152 80.3315 56.12 80.2595 56.088 80.1795C56.04 80.0835 56 79.9875 55.968 79.8915C55.856 79.5875 55.76 79.2595 55.68 78.9075C55.6 78.5715 55.576 78.2595 55.608 77.9715C55.64 77.6675 55.784 77.5075 56.04 77.4915C56.152 77.4755 56.304 77.5235 56.496 77.6355C56.688 77.7475 56.896 77.9075 57.12 78.1155C57.264 78.2435 57.504 78.4755 57.84 78.8115L58.632 79.6035C58.888 79.8275 59.128 79.9955 59.352 80.1075C59.576 80.2195 59.72 80.2435 59.784 80.1795C59.912 80.0835 59.96 79.8755 59.928 79.5555C59.896 79.2355 59.824 78.8755 59.712 78.4755C59.632 78.2035 59.496 77.7795 59.304 77.2035C59.272 77.1075 59.136 76.7235 58.896 76.0515C58.528 74.9155 58.144 73.7715 57.744 72.6195C57.584 72.1715 57.344 71.4995 57.024 70.6035C56.704 69.6915 56.472 69.0435 56.328 68.6595C56.296 68.5795 56.304 68.4915 56.352 68.3955C56.4 68.2835 56.456 68.2195 56.52 68.2035ZM56.496 53.673L56.592 53.745C56.704 53.713 56.8 53.721 56.88 53.769C56.976 53.817 57.032 53.873 57.048 53.937C57.048 53.969 57.12 54.185 57.264 54.585C57.552 55.401 57.736 55.929 57.816 56.169C58.216 57.369 58.464 58.105 58.56 58.377C58.88 59.289 59.168 60.137 59.424 60.921C59.456 61.001 59.584 61.433 59.808 62.217C59.888 62.457 59.992 62.833 60.12 63.345C60.152 63.473 60.2 63.649 60.264 63.873C60.312 64.097 60.344 64.257 60.36 64.353C60.424 64.753 60.464 65.089 60.48 65.361C60.496 65.713 60.376 66.025 60.12 66.297C59.96 66.457 59.768 66.513 59.544 66.465C59.368 66.433 59.176 66.369 58.968 66.273C58.648 66.113 58.36 65.921 58.104 65.697L57.312 65.049C57.408 65.369 57.512 65.785 57.624 66.297C57.72 66.729 57.792 67.137 57.84 67.521C57.92 68.097 57.96 68.433 57.96 68.529C57.992 68.817 58.016 69.033 58.032 69.177C58.368 69.465 58.664 69.713 58.92 69.921C59.16 70.113 59.288 70.217 59.304 70.233C59.384 70.313 59.424 70.401 59.424 70.497C59.424 70.561 59.4 70.633 59.352 70.713C59.208 70.889 59.048 70.913 58.872 70.785L58.824 70.737C58.776 70.705 58.712 70.657 58.632 70.593C58.552 70.529 58.472 70.465 58.392 70.401C58.104 70.161 57.768 69.873 57.384 69.537C57.272 69.441 57.08 69.273 56.808 69.033C56.536 68.809 56.328 68.633 56.184 68.505C55.816 68.185 55.496 67.873 55.224 67.569C55.08 67.393 55.088 67.233 55.248 67.089C55.424 66.945 55.584 66.953 55.728 67.113C55.904 67.305 56.12 67.521 56.376 67.761C56.76 68.113 57.048 68.369 57.24 68.529C57.224 68.417 57.184 68.057 57.12 67.449C57.072 67.017 57 66.593 56.904 66.177C56.824 65.825 56.712 65.401 56.568 64.905C56.456 64.505 56.296 64.153 56.088 63.849L55.8 63.561C55.72 63.481 55.584 63.361 55.392 63.201C55.2 63.041 55.064 62.921 54.984 62.841C54.904 62.761 54.864 62.681 54.864 62.601C54.864 62.489 54.896 62.401 54.96 62.337C55.04 62.257 55.12 62.217 55.2 62.217C55.296 62.217 55.376 62.249 55.44 62.313C56.192 63.033 56.888 63.681 57.528 64.257C58.168 64.817 58.896 65.329 59.712 65.793C59.76 65.169 59.696 64.537 59.52 63.897C59.296 63.065 59.128 62.449 59.016 62.049C59 61.905 58.96 61.745 58.896 61.569C58.864 61.473 58.816 61.313 58.752 61.089C58.448 60.081 58.088 59.001 57.672 57.849C57.224 56.585 56.768 55.345 56.304 54.129C56.272 54.049 56.28 53.961 56.328 53.865C56.376 53.753 56.432 53.689 56.496 53.673ZM56.544 41.5897L56.568 41.7817C56.648 41.7497 56.728 41.7577 56.808 41.8057C56.904 41.8537 56.96 41.9097 56.976 41.9737C57.008 42.0057 57.096 42.2217 57.24 42.6217C57.384 43.0377 57.552 43.5177 57.744 44.0617C57.872 44.4297 58.064 44.9657 58.32 45.6697C58.512 46.1977 58.656 46.5817 58.752 46.8217C58.976 47.6057 59.112 48.0937 59.16 48.2857C59.304 48.8777 59.416 49.3737 59.496 49.7737C59.544 50.0137 59.616 50.3897 59.712 50.9017C59.776 51.2377 59.808 51.6217 59.808 52.0537C59.808 52.4377 59.76 52.8217 59.664 53.2057C59.568 53.6057 59.392 53.9657 59.136 54.2857C58.944 54.5257 58.712 54.6697 58.44 54.7177C58.2 54.7657 57.912 54.7497 57.576 54.6697C57.304 54.6057 57.008 54.4937 56.688 54.3337C56.464 54.2217 56.224 54.0857 55.968 53.9257C55.456 53.6057 55.008 53.2057 54.624 52.7257C54.24 52.2457 53.952 51.7257 53.76 51.1657C53.68 50.9257 53.656 50.6617 53.688 50.3737C53.72 50.0697 53.864 49.8617 54.12 49.7497C54.36 49.6857 54.584 49.7097 54.792 49.8217C55 49.9337 55.176 50.0777 55.32 50.2537C55.736 50.7337 56.08 51.2857 56.352 51.9097C56.592 52.4377 56.816 53.0377 57.024 53.7097C57.104 53.7417 57.232 53.7897 57.408 53.8537C57.584 53.9177 57.696 53.9577 57.744 53.9737C58 54.0697 58.24 54.0297 58.464 53.8537C58.752 53.5497 58.92 53.1737 58.968 52.7257C59.016 52.2457 59.032 51.8297 59.016 51.4777C58.92 50.3737 58.712 49.2457 58.392 48.0937C58.072 46.9577 57.712 45.8617 57.312 44.8057C57.168 44.4217 57.08 44.1817 57.048 44.0857L56.76 43.2217C56.728 43.1257 56.68 42.9897 56.616 42.8137C56.552 42.6377 56.512 42.5177 56.496 42.4537C56.416 42.2137 56.368 42.0777 56.352 42.0457C56.32 41.9657 56.328 41.8777 56.376 41.7817C56.424 41.6697 56.48 41.6057 56.544 41.5897ZM54.288 50.4457C54.32 51.0537 54.512 51.6057 54.864 52.1017C55.216 52.5977 55.624 53.0297 56.088 53.3977C55.912 52.8697 55.68 52.3257 55.392 51.7657C55.136 51.2377 54.768 50.7977 54.288 50.4457ZM56.544 28.2474L56.784 28.3434C56.992 28.2794 57.136 28.3514 57.216 28.5594L57.6 29.6154C57.664 29.7914 57.76 30.0394 57.888 30.3594C57.984 30.5994 58.032 30.7274 58.032 30.7434L58.008 30.7434C58.36 31.7994 58.608 32.7914 58.752 33.7194C58.896 34.6154 58.968 35.3914 58.968 36.0474C58.968 36.6394 58.936 37.1194 58.872 37.4874C58.808 37.8714 58.736 38.2154 58.656 38.5194L58.776 38.6874C58.984 39.0714 59.296 39.6634 59.712 40.4634C60.016 41.0554 60.184 41.7034 60.216 42.4074C60.248 42.5994 60.216 42.7754 60.12 42.9354C59.992 43.1594 59.904 43.3274 59.856 43.4394C60.512 44.0314 61.216 44.5674 61.968 45.0474C62.464 45.3674 63.208 45.8314 64.2 46.4394C64.264 46.5034 64.32 46.5514 64.368 46.5834L64.584 46.7274C64.664 46.7754 64.712 46.8314 64.728 46.8954C64.76 46.9754 64.76 47.0474 64.728 47.1114C64.632 47.2394 64.52 47.3034 64.392 47.3034C64.264 47.3034 64.144 47.2794 64.032 47.2314C63.952 47.1994 63.832 47.1354 63.672 47.0394C63.512 46.9434 63.4 46.8794 63.336 46.8474C61.752 45.8074 60.192 44.7514 58.656 43.6794C57.168 42.6394 55.68 41.4714 54.192 40.1754C53.968 39.9514 53.736 39.7434 53.496 39.5514C53.256 39.3594 53.024 39.1514 52.8 38.9274C52.72 38.8154 52.68 38.7194 52.68 38.6394C52.68 38.5114 52.688 38.4234 52.704 38.3754C52.736 38.2954 52.784 38.2554 52.848 38.2554C52.944 38.2554 53.032 38.2874 53.112 38.3514C53.8 38.9114 54.416 39.4394 54.96 39.9354C55.488 40.4314 56.128 40.9434 56.88 41.4714C56.688 41.2154 56.456 40.8554 56.184 40.3914C55.832 39.7834 55.552 39.2474 55.344 38.7834C55.088 38.2074 54.896 37.6394 54.768 37.0794C54.64 36.5194 54.664 36.0714 54.84 35.7354C54.888 35.6714 54.96 35.6234 55.056 35.5914C55.184 35.5594 55.288 35.5434 55.368 35.5434C55.448 35.5434 55.568 35.5594 55.728 35.5914C56.176 35.8154 56.56 36.1114 56.88 36.4794C57.2 36.8474 57.544 37.2634 57.912 37.7274C57.992 37.3594 58.04 36.9434 58.056 36.4794C58.088 35.9994 58.064 35.4474 57.984 34.8234C57.904 34.1994 57.784 33.5034 57.624 32.7354C57.464 31.9674 57.224 31.1274 56.904 30.2154C56.904 30.1834 56.88 30.0954 56.832 29.9514C56.816 29.9354 56.752 29.7834 56.64 29.4954C56.544 29.2714 56.48 29.1034 56.448 28.9914C56.416 28.8794 56.376 28.7754 56.328 28.6794C56.264 28.4554 56.336 28.3114 56.544 28.2474ZM55.56 36.2634C55.64 37.1914 55.872 38.0954 56.256 38.9754C56.64 39.8874 57.152 40.7034 57.792 41.4234C57.776 40.9594 57.776 40.5034 57.792 40.0554C57.824 39.4474 57.856 38.9914 57.888 38.6874C57.664 38.3834 57.312 37.9274 56.832 37.3194C56.48 36.8714 56.056 36.5194 55.56 36.2634ZM59.544 42.8394L59.592 42.9114C59.64 42.3194 59.552 41.7514 59.328 41.2074C59.12 40.6954 58.864 40.1754 58.56 39.6474C58.528 40.0314 58.512 40.3354 58.512 40.5594C58.512 40.8794 58.536 41.1834 58.584 41.4714C58.632 41.7594 58.728 42.0234 58.872 42.2634C59.016 42.5034 59.24 42.6954 59.544 42.8394ZM56.544 15.7035L56.688 15.6795C56.896 15.6155 57.04 15.6875 57.12 15.8955L57.24 16.2315C57.336 16.4395 57.432 16.6795 57.528 16.9515C57.688 17.3835 57.776 17.6315 57.792 17.6955C57.808 17.7595 57.832 17.8235 57.864 17.8875C57.88 17.9515 57.896 17.9995 57.912 18.0315L57.912 18.0795C58.28 19.1835 58.52 20.1755 58.632 21.0555C58.76 21.9995 58.824 22.7915 58.824 23.4315C58.824 23.9915 58.784 24.5275 58.704 25.0395C58.64 25.4395 58.552 25.8075 58.44 26.1435L58.464 26.1675C58.944 26.6475 59.344 27.1755 59.664 27.7515C60 28.3435 60.144 28.9915 60.096 29.6955C60.096 29.9995 59.96 30.2475 59.688 30.4395C59.432 30.6315 59.168 30.6635 58.896 30.5355C58.432 30.3275 58 30.0475 57.6 29.6955C57.344 29.4715 56.976 29.1195 56.496 28.6395C56.16 28.7515 55.808 28.8235 55.44 28.8555C55.072 28.8715 54.736 28.7755 54.432 28.5675C54.176 28.4235 53.976 28.2315 53.832 27.9915C53.688 27.7515 53.592 27.4875 53.544 27.1995C53.496 26.9115 53.52 26.6315 53.616 26.3595C53.712 26.0875 53.872 25.8555 54.096 25.6635C54.368 25.4395 54.656 25.2795 54.96 25.1835C55.264 25.0875 55.592 25.0395 55.944 25.0395C56.312 25.0395 56.64 25.0955 56.928 25.2075C57.264 25.3355 57.552 25.4875 57.792 25.6635C57.872 25.2955 57.936 24.8955 57.984 24.4635C58.032 24.0475 58.04 23.4715 58.008 22.7355C57.992 22.0795 57.896 21.3275 57.72 20.4795C57.56 19.6475 57.296 18.7115 56.928 17.6715C56.912 17.6555 56.88 17.5675 56.832 17.4075C56.736 17.1355 56.68 16.9755 56.664 16.9275C56.568 16.7035 56.504 16.5435 56.472 16.4475C56.44 16.3515 56.4 16.2555 56.352 16.1595C56.32 16.0795 56.328 15.9915 56.376 15.8955C56.424 15.7835 56.48 15.7195 56.544 15.7035ZM55.536 25.6875L55.56 25.6395C55.08 25.7195 54.744 25.8955 54.552 26.1675C54.36 26.4555 54.296 26.7515 54.36 27.0555C54.424 27.3755 54.616 27.6395 54.936 27.8475C55.24 28.0555 55.656 28.1275 56.184 28.0635C56.04 27.8075 56.016 27.6155 56.112 27.4875C56.208 27.3595 56.416 27.4315 56.736 27.7035C56.896 27.5595 57.072 27.3675 57.264 27.1275C57.44 26.9195 57.584 26.6555 57.696 26.3355C57.392 26.1115 57.056 25.9195 56.688 25.7595C56.32 25.5995 55.936 25.5755 55.536 25.6875ZM59.4 29.8875C59.512 29.2955 59.44 28.7435 59.184 28.2315C58.912 27.7035 58.6 27.2235 58.248 26.7915C57.928 27.3355 57.568 27.8075 57.168 28.2075C57.504 28.5275 57.848 28.8475 58.2 29.1675C58.552 29.4715 58.952 29.7115 59.4 29.8875ZM56.544 1.653L56.616 1.725C56.696 1.693 56.776 1.701 56.856 1.749C56.952 1.797 57.008 1.853 57.024 1.917C57.024 1.933 57.072 2.061 57.168 2.301C57.2 2.381 57.264 2.533 57.36 2.757C57.44 2.981 57.504 3.165 57.552 3.309C57.664 3.597 57.84 4.101 58.08 4.821C58.144 5.013 58.24 5.309 58.368 5.709C58.496 6.109 58.6 6.421 58.68 6.645L58.968 7.581C59.144 8.317 59.264 8.925 59.328 9.405C59.392 9.853 59.424 10.309 59.424 10.773L59.424 10.989C59.424 11.085 59.416 11.157 59.4 11.205C59.624 11.317 59.864 11.485 60.12 11.709C60.392 11.933 60.632 12.181 60.84 12.453C61.064 12.757 61.224 13.045 61.32 13.317C61.416 13.589 61.4 13.861 61.272 14.133C61.144 14.293 61.016 14.381 60.888 14.397C60.728 14.429 60.576 14.421 60.432 14.373C60.272 14.325 60.12 14.253 59.976 14.157C59.784 14.029 59.648 13.933 59.568 13.869C59.392 13.709 59.24 13.517 59.112 13.293C58.984 13.069 58.888 12.853 58.824 12.645C58.776 12.453 58.72 12.205 58.656 11.901C58.576 11.581 58.392 11.349 58.104 11.205C58.008 11.157 57.872 11.085 57.696 10.989C57.52 10.893 57.392 10.829 57.312 10.797C57.44 11.837 57.808 12.757 58.416 13.557C59.008 14.341 59.72 15.045 60.552 15.669C61 16.037 61.48 16.373 61.992 16.677C62.328 16.885 62.832 17.181 63.504 17.565C63.632 17.661 63.72 17.733 63.768 17.781C63.864 17.877 63.928 17.949 63.96 17.997C63.992 18.045 64.024 18.133 64.056 18.261C64.088 18.437 64.016 18.533 63.84 18.549C63.728 18.565 63.608 18.573 63.48 18.573C61.784 18.349 60.128 17.917 58.512 17.277C56.912 16.637 55.472 15.733 54.192 14.565C53.328 13.813 52.464 12.981 51.6 12.069C50.784 11.205 50.04 10.269 49.368 9.261C48.984 8.605 48.656 7.981 48.384 7.389C48.096 6.717 47.984 6.029 48.048 5.325C48.064 5.021 48.184 4.749 48.408 4.509C48.616 4.269 48.88 4.165 49.2 4.197C49.568 4.213 49.912 4.333 50.232 4.557C50.552 4.781 50.84 5.021 51.096 5.277C51.512 5.709 51.896 6.205 52.248 6.765C52.696 7.469 53.024 7.997 53.232 8.349C53.872 9.453 54.552 10.701 55.272 12.093C55.912 13.341 56.536 14.613 57.144 15.909C57.96 16.309 58.8 16.669 59.664 16.989C60.528 17.309 61.416 17.549 62.328 17.709C61.784 17.373 61.232 17.013 60.672 16.629C60.064 16.197 59.544 15.781 59.112 15.381C58.648 14.949 58.216 14.453 57.816 13.893C57.416 13.349 57.112 12.757 56.904 12.117C56.808 11.829 56.736 11.509 56.688 11.157C56.64 10.805 56.744 10.509 57 10.269C57.32 10.141 57.616 10.149 57.888 10.293C58.08 10.389 58.352 10.533 58.704 10.725C58.704 10.261 58.656 9.733 58.56 9.141C58.464 8.549 58.272 7.757 57.984 6.765C57.712 6.045 57.448 5.301 57.192 4.533C56.936 3.765 56.648 2.949 56.328 2.085C56.264 1.877 56.336 1.733 56.544 1.653ZM51.864 11.277L51.816 11.349C52.44 12.037 53.136 12.741 53.904 13.461C54.576 14.101 55.344 14.733 56.208 15.357C55.952 14.861 55.568 14.101 55.056 13.077C54.544 12.053 54.152 11.293 53.88 10.797C53.336 9.805 52.92 9.069 52.632 8.589C52.136 7.757 51.672 7.045 51.24 6.453C51.16 6.341 51.024 6.173 50.832 5.949C50.688 5.773 50.528 5.613 50.352 5.469C50.192 5.341 50.008 5.221 49.8 5.109C49.608 5.013 49.4 4.965 49.176 4.965C49.048 5.045 48.96 5.141 48.912 5.253C48.864 5.365 48.84 5.485 48.84 5.613C48.84 5.773 48.848 5.893 48.864 5.973L48.936 6.333C49.16 7.309 49.544 8.189 50.088 8.973C50.6 9.709 51.192 10.477 51.864 11.277ZM60.696 13.917L60.744 13.965C60.824 13.933 60.864 13.885 60.864 13.821C60.864 13.757 60.84 13.677 60.792 13.581C60.76 13.501 60.688 13.397 60.576 13.269C60.448 13.109 60.344 12.989 60.264 12.909C60.008 12.653 59.696 12.365 59.328 12.045C59.408 12.429 59.504 12.765 59.616 13.053C59.728 13.293 59.872 13.517 60.048 13.725C60.224 13.917 60.44 13.981 60.696 13.917Z" fill="#EDC684"/>
</svg>
