<svg width="38" height="116" viewBox="0 0 38 116" fill="none" xmlns="http://www.w3.org/2000/svg">
<path d="M9.52 80.8563L9.616 81.0483C9.68 81.0323 9.76 81.0323 9.856 81.0483C9.936 81.0643 9.992 81.1283 10.024 81.2403C10.536 82.5363 10.968 83.7523 11.32 84.8883C11.656 85.9923 11.92 87.0003 12.112 87.9123C12.32 88.9043 12.456 89.7203 12.52 90.3603C12.6 91.1603 12.64 91.8003 12.64 92.2803C12.64 93.2083 12.568 93.9363 12.424 94.4643C12.28 94.9763 12.144 95.3523 12.016 95.5923L12.52 96.2643C13.304 97.3363 13.896 98.4163 14.296 99.5043C14.392 99.7923 14.496 100.16 14.608 100.608C14.704 101.024 14.704 101.408 14.608 101.76C14.512 102.176 14.304 102.504 13.984 102.744C13.664 102.984 13.256 103.024 12.76 102.864C12.328 102.736 11.928 102.56 11.56 102.336C10.984 102.032 10.416 101.656 9.856 101.208C9.296 100.776 8.728 100.232 8.152 99.5763C7.992 99.4003 7.696 99.0643 7.264 98.5683C7.136 98.3923 6.968 98.2963 6.76 98.2803C5.608 98.2643 4.552 97.9763 3.592 97.4163C2.36 96.7443 1.592 95.8323 1.288 94.6803C1.032 93.7523 1.216 92.8883 1.84 92.0883C2.336 91.4803 2.976 91.0643 3.76 90.8403C4.528 90.6163 5.336 90.6403 6.184 90.9123C7.224 91.2323 8.184 91.7603 9.064 92.4963C9.4 92.7683 9.704 93.0323 9.976 93.2883C10.2 93.4963 10.688 93.9763 11.44 94.7283L11.536 94.8483C11.664 94.4963 11.776 94.0163 11.872 93.4083C11.968 92.7683 11.968 91.9043 11.872 90.8163C11.776 89.7283 11.536 88.4083 11.152 86.8563C10.752 85.2403 10.144 83.3923 9.328 81.3123C9.296 81.2323 9.296 81.1443 9.328 81.0483C9.36 80.9523 9.424 80.8883 9.52 80.8563ZM11.704 96.2883L11.704 96.4083C11.24 96.9043 10.712 97.3123 10.12 97.6323C9.528 97.9363 8.816 98.1763 7.984 98.3523C8.384 98.8483 8.88 99.4003 9.472 100.008C9.984 100.536 10.584 101.024 11.272 101.472C11.56 101.664 11.808 101.808 12.016 101.904C12.048 101.92 12.28 102.024 12.712 102.216C13.08 102.392 13.384 102.408 13.624 102.264C13.864 102.12 13.992 101.824 14.008 101.376C14.088 101.104 14.064 100.8 13.936 100.464C13.776 100.016 13.656 99.6883 13.576 99.4803C13.336 98.9683 13.096 98.4963 12.856 98.0643C12.6 97.6003 12.272 97.0803 11.872 96.5043C11.776 96.3763 11.72 96.3043 11.704 96.2883ZM10.432 96.6243L10.552 96.6963C10.696 96.6003 10.84 96.4803 10.984 96.3363C11.08 96.2403 11.208 96.0803 11.368 95.8563L11.344 95.8323L11.272 95.7603L11.2 95.6883C10.128 94.3763 8.976 93.3603 7.744 92.6403C7.44 92.4643 7.112 92.2963 6.76 92.1363C6.424 91.9763 6.12 91.8643 5.848 91.8003C4.792 91.5283 3.856 91.6963 3.04 92.3043C2.528 92.6883 2.216 93.1443 2.104 93.6723C1.976 94.2003 2.072 94.7443 2.392 95.3043C2.792 96.0723 3.384 96.6563 4.168 97.0563C4.952 97.4563 5.792 97.7123 6.688 97.8243C6.672 97.7763 6.648 97.7203 6.616 97.6563L6.52 97.5123C6.072 96.9203 5.72 96.3923 5.464 95.9283C5.192 95.4643 4.944 94.9763 4.72 94.4643C4.624 94.1763 4.552 93.8643 4.504 93.5283C4.504 93.3523 4.552 93.2163 4.648 93.1203C4.744 93.0563 4.864 93.0323 5.008 93.0483C5.168 93.0963 5.288 93.2163 5.368 93.4083C5.384 93.5523 5.36 93.6563 5.296 93.7203C5.184 93.8323 5.2 94.0723 5.344 94.4403C5.472 94.7603 5.68 95.1443 5.968 95.5923C6.144 95.8643 6.408 96.2563 6.76 96.7683C6.872 96.9443 7.064 97.2163 7.336 97.5843C7.416 97.6643 7.472 97.7123 7.504 97.7283C7.552 97.7603 7.624 97.7603 7.72 97.7283C8.728 97.5843 9.632 97.2163 10.432 96.6243ZM9.544 65.8532L9.856 65.9012C10.08 65.8212 10.224 65.8932 10.288 66.1172C10.288 66.1492 10.36 66.3652 10.504 66.7652C10.792 67.5812 10.976 68.1092 11.056 68.3492C11.456 69.5492 11.704 70.2852 11.8 70.5572C12.12 71.4692 12.408 72.3172 12.664 73.1012C12.696 73.1812 12.824 73.6132 13.048 74.3972C13.128 74.6372 13.232 75.0132 13.36 75.5252C13.392 75.6532 13.44 75.8372 13.504 76.0772C13.552 76.3012 13.584 76.4532 13.6 76.5332C13.632 76.7572 13.664 77.0932 13.696 77.5412C13.712 77.8932 13.6 78.2052 13.36 78.4772C13.2 78.6372 13.008 78.6932 12.784 78.6452C12.608 78.6132 12.416 78.5492 12.208 78.4532C11.712 78.1972 11.24 77.8692 10.792 77.4692L9.496 76.3172C9.864 78.1572 10.488 79.9012 11.368 81.5492C11.416 81.6292 11.464 81.7252 11.512 81.8372C11.56 81.9492 11.568 82.0532 11.536 82.1492C11.52 82.2292 11.472 82.3092 11.392 82.3892C11.328 82.4532 11.224 82.4772 11.08 82.4612C10.328 82.0932 9.664 81.6212 9.088 81.0452C8.576 80.5332 8.024 79.9412 7.432 79.2692C7.304 79.1252 7.264 78.9812 7.312 78.8372C7.36 78.6772 7.48 78.5892 7.672 78.5732C7.976 78.8772 8.416 79.3332 8.992 79.9412C9.456 80.4212 9.92 80.8532 10.384 81.2372C9.968 80.3732 9.608 79.5252 9.304 78.6932C9 77.8292 8.784 76.9412 8.656 76.0292C8.624 75.8852 8.632 75.7732 8.68 75.6932C8.728 75.5972 8.8 75.5252 8.896 75.4772C8.992 75.4292 9.096 75.4052 9.208 75.4052C9.32 75.4052 9.424 75.4532 9.52 75.5492C9.872 75.8372 10.128 76.0612 10.288 76.2212C10.448 76.3812 10.704 76.6052 11.056 76.8932C11.296 77.1012 11.568 77.3012 11.872 77.4932C12.192 77.7172 12.488 77.8772 12.76 77.9732C12.808 77.3492 12.744 76.7172 12.568 76.0772C12.344 75.2452 12.176 74.6292 12.064 74.2292C12 74.0052 11.952 73.8452 11.92 73.7492C11.824 73.4772 11.768 73.3172 11.752 73.2692C11.448 72.2612 11.088 71.1812 10.672 70.0292C9.856 67.7252 9.416 66.4852 9.352 66.3092C9.32 66.2292 9.328 66.1412 9.376 66.0452C9.424 65.9332 9.48 65.8692 9.544 65.8532ZM9.544 49.4612L9.616 49.5092C9.728 49.4772 9.816 49.4852 9.88 49.5332C9.96 49.5812 10.008 49.6532 10.024 49.7492L10.24 50.3492C10.384 50.7652 10.576 51.2932 10.816 51.9332C11.056 52.5732 11.32 53.3172 11.608 54.1652C11.896 55.0132 12.184 55.8772 12.472 56.7572L12.496 56.8292C12.512 56.8772 12.536 56.9492 12.568 57.0452C12.6 57.1412 12.632 57.2452 12.664 57.3572C12.776 57.7412 12.92 58.2692 13.096 58.9412C13.272 59.6452 13.44 60.4212 13.6 61.2692C13.76 62.0692 13.888 63.0292 13.984 64.1492L13.984 65.1572C13.984 65.4932 13.944 65.8612 13.864 66.2612C13.784 66.6292 13.64 66.9332 13.432 67.1732C13.224 67.4132 12.888 67.5332 12.424 67.5332C11.96 67.5012 11.536 67.4292 11.152 67.3172C10.784 67.2052 10.344 66.9892 9.832 66.6692C7.96 65.4052 6.336 63.9412 4.96 62.2772C3.552 60.5812 2.384 58.7412 1.456 56.7572C1.312 56.3892 1.2 56.0612 1.12 55.7732C1.024 55.4212 0.983996 55.0772 0.999997 54.7412C1.032 54.5172 1.152 54.3332 1.36 54.1892C1.584 54.0452 1.8 54.0212 2.008 54.1172C2.472 54.2772 2.888 54.5572 3.256 54.9572C3.528 55.2452 3.864 55.6212 4.264 56.0852C5.416 57.5572 6.456 59.1412 7.384 60.8372C8.2 62.3252 9.096 63.9892 10.072 65.8292C10.392 66.1012 10.736 66.3172 11.104 66.4772C11.488 66.6532 11.88 66.7732 12.28 66.8372C12.584 66.9012 12.808 66.8212 12.952 66.5972C13.096 66.3572 13.192 66.0692 13.24 65.7332C13.288 65.4292 13.296 65.1012 13.264 64.7492C13.248 64.5412 13.24 64.3252 13.24 64.1012C13.176 63.5732 13.088 62.9572 12.976 62.2532C12.848 61.4852 12.744 60.9092 12.664 60.5252C12.536 59.9012 12.392 59.2852 12.232 58.6772C12.056 58.0212 11.84 57.2772 11.584 56.4452C11.28 55.5012 10.968 54.5492 10.648 53.5892C10.28 52.5332 9.848 51.3092 9.352 49.9172C9.32 49.8372 9.328 49.7492 9.376 49.6532C9.424 49.5412 9.48 49.4772 9.544 49.4612ZM2.392 57.0692L2.392 57.1172C3.224 58.7012 4.168 60.1652 5.224 61.5092C6.312 62.9012 7.544 64.1252 8.92 65.1812C8.2 63.7252 7.496 62.4052 6.808 61.2212C6.056 59.9092 5.256 58.6532 4.408 57.4532C4.024 56.9412 3.616 56.4372 3.184 55.9412C2.736 55.4132 2.224 55.0132 1.648 54.7412C1.68 55.1892 1.76 55.5892 1.888 55.9412C2.048 56.3572 2.216 56.7332 2.392 57.0692ZM6.328 47.3103C6.328 47.3103 6.328 47.3183 6.328 47.3343C6.36 47.1743 6.432 47.0703 6.544 47.0223C6.656 46.9743 6.776 46.9743 6.904 47.0223C7.016 47.0703 7.096 47.1583 7.144 47.2863C7.192 47.3983 7.168 47.5183 7.072 47.6463C6.992 47.7263 6.92 47.7663 6.856 47.7663C6.776 47.7663 6.704 47.7423 6.64 47.6943C6.544 47.6303 6.48 47.5743 6.448 47.5263C6.384 47.4463 6.344 47.3823 6.328 47.3343C6.328 47.3503 6.328 47.3663 6.328 47.3823L6.328 47.3103ZM9.544 39.5583C9.624 39.5263 9.712 39.5343 9.808 39.5823C9.904 39.6303 9.968 39.6943 10 39.7743C10 39.7903 10.072 40.0063 10.216 40.4223C10.504 41.2383 10.664 41.6943 10.696 41.7903L11.368 43.7583C11.624 44.6383 11.76 45.1023 11.776 45.1503C11.92 45.6783 12.064 46.2303 12.208 46.8063C12.352 47.3983 12.472 47.9583 12.568 48.4863C12.664 49.0303 12.712 49.5183 12.712 49.9503C12.712 50.1583 12.704 50.3183 12.688 50.4303C12.672 50.5743 12.632 50.7343 12.568 50.9103C12.52 51.0383 12.432 51.1583 12.304 51.2703C12.176 51.3823 12.024 51.4463 11.848 51.4623C11.544 51.4783 11.2 51.3823 10.816 51.1743C10.448 50.9663 10.08 50.7023 9.712 50.3823C9.344 50.0623 9.024 49.7663 8.752 49.4943C8.432 49.1743 8.24 48.9743 8.176 48.8943C8.112 48.8303 8.08 48.7503 8.08 48.6543C8.08 48.5743 8.12 48.4943 8.2 48.4143C8.264 48.3503 8.352 48.3183 8.464 48.3183C8.544 48.3183 8.624 48.3583 8.704 48.4383C9.008 48.7423 9.272 48.9983 9.496 49.2063C9.832 49.5103 10.168 49.7983 10.504 50.0703C10.808 50.3103 11.12 50.5103 11.44 50.6703C11.728 50.8143 11.92 50.8143 12.016 50.6703C12.144 50.4623 12.184 50.0783 12.136 49.5183C12.088 48.8943 11.984 48.2383 11.824 47.5503C11.632 46.7183 11.432 45.9423 11.224 45.2223C10.984 44.4063 10.744 43.6623 10.504 42.9903L10.408 42.6783C10.328 42.4543 10.232 42.1903 10.12 41.8863C9.96 41.4703 9.84 41.1503 9.76 40.9263C9.728 40.8303 9.696 40.7263 9.664 40.6143C9.616 40.5023 9.576 40.3983 9.544 40.3023C9.512 40.2063 9.48 40.1183 9.448 40.0383C9.416 39.9263 9.424 39.8383 9.472 39.7743C9.52 39.6943 9.592 39.6463 9.688 39.6303L9.544 39.5583ZM9.544 24.486L9.856 24.534C10.08 24.454 10.224 24.526 10.288 24.75C10.288 24.782 10.36 24.998 10.504 25.398C10.792 26.214 10.976 26.742 11.056 26.982C11.456 28.182 11.704 28.918 11.8 29.19C12.12 30.102 12.408 30.95 12.664 31.734C12.696 31.814 12.824 32.246 13.048 33.03C13.128 33.27 13.232 33.646 13.36 34.158C13.392 34.286 13.44 34.47 13.504 34.71C13.552 34.934 13.584 35.086 13.6 35.166C13.632 35.39 13.664 35.726 13.696 36.174C13.712 36.526 13.6 36.838 13.36 37.11C13.2 37.27 13.008 37.326 12.784 37.278C12.608 37.246 12.416 37.182 12.208 37.086C11.712 36.83 11.24 36.502 10.792 36.102L9.496 34.95C9.864 36.79 10.488 38.534 11.368 40.182C11.416 40.262 11.464 40.358 11.512 40.47C11.56 40.582 11.568 40.686 11.536 40.782C11.52 40.862 11.472 40.942 11.392 41.022C11.328 41.086 11.224 41.11 11.08 41.094C10.328 40.726 9.664 40.254 9.088 39.678C8.576 39.166 8.024 38.574 7.432 37.902C7.304 37.758 7.264 37.614 7.312 37.47C7.36 37.31 7.48 37.222 7.672 37.206C7.976 37.51 8.416 37.966 8.992 38.574C9.456 39.054 9.92 39.486 10.384 39.87C9.968 39.006 9.608 38.158 9.304 37.326C9 36.462 8.784 35.574 8.656 34.662C8.624 34.518 8.632 34.406 8.68 34.326C8.728 34.23 8.8 34.158 8.896 34.11C8.992 34.062 9.096 34.038 9.208 34.038C9.32 34.038 9.424 34.086 9.52 34.182C9.872 34.47 10.128 34.694 10.288 34.854C10.448 35.014 10.704 35.238 11.056 35.526C11.296 35.734 11.568 35.934 11.872 36.126C12.192 36.35 12.488 36.51 12.76 36.606C12.808 35.982 12.744 35.35 12.568 34.71C12.344 33.878 12.176 33.262 12.064 32.862C12 32.638 11.952 32.478 11.92 32.382C11.824 32.11 11.768 31.95 11.752 31.902C11.448 30.894 11.088 29.814 10.672 28.662C9.856 26.358 9.416 25.118 9.352 24.942C9.32 24.862 9.328 24.774 9.376 24.678C9.424 24.566 9.48 24.502 9.544 24.486ZM9.54399 12.414L9.568 12.606C9.648 12.574 9.728 12.582 9.80799 12.63C9.904 12.678 9.96 12.734 9.97599 12.798C10.008 12.83 10.096 13.046 10.24 13.446C10.384 13.862 10.552 14.342 10.744 14.886C10.872 15.254 11.064 15.79 11.32 16.494C11.512 17.022 11.656 17.406 11.752 17.646C11.976 18.43 12.112 18.918 12.16 19.11C12.304 19.702 12.416 20.198 12.496 20.598C12.544 20.838 12.616 21.214 12.712 21.726C12.776 22.062 12.808 22.446 12.808 22.878C12.808 23.262 12.76 23.646 12.664 24.03C12.568 24.43 12.392 24.79 12.136 25.11C11.944 25.35 11.712 25.494 11.44 25.542C11.2 25.59 10.912 25.574 10.576 25.494C10.304 25.43 10.008 25.318 9.688 25.158C9.464 25.046 9.224 24.91 8.968 24.75C8.456 24.43 8.008 24.03 7.624 23.55C7.24 23.07 6.952 22.55 6.76 21.99C6.68 21.75 6.656 21.486 6.688 21.198C6.72 20.894 6.864 20.686 7.12 20.574C7.36 20.51 7.584 20.534 7.792 20.646C8 20.758 8.176 20.902 8.32 21.078C8.736 21.558 9.08 22.11 9.352 22.734C9.592 23.262 9.816 23.862 10.024 24.534C10.104 24.566 10.232 24.614 10.408 24.678C10.584 24.742 10.696 24.782 10.744 24.798C11 24.894 11.24 24.854 11.464 24.678C11.752 24.374 11.92 23.998 11.968 23.55C12.016 23.07 12.032 22.654 12.016 22.302C11.92 21.198 11.712 20.07 11.392 18.918C11.072 17.782 10.712 16.686 10.312 15.63C10.168 15.246 10.08 15.006 10.048 14.91L9.75999 14.046C9.72799 13.95 9.67999 13.814 9.616 13.638C9.552 13.462 9.51199 13.342 9.49599 13.278C9.41599 13.038 9.36799 12.902 9.352 12.87C9.32 12.79 9.32799 12.702 9.37599 12.606C9.424 12.494 9.48 12.43 9.54399 12.414ZM7.288 21.27C7.32 21.878 7.512 22.43 7.864 22.926C8.216 23.422 8.624 23.854 9.088 24.222C8.912 23.694 8.68 23.15 8.392 22.59C8.136 22.062 7.768 21.622 7.288 21.27ZM33.52 100.752L33.52 100.728C33.744 100.664 33.888 100.736 33.952 100.944C33.984 101.008 34.064 101.2 34.192 101.52C34.256 101.68 34.352 101.936 34.48 102.288C34.512 102.384 34.592 102.64 34.72 103.056C34.8 103.312 34.848 103.488 34.864 103.584C35.184 104.816 35.4 106.064 35.512 107.328C35.624 108.464 35.704 109.736 35.752 111.144C36.008 111.336 36.208 111.488 36.352 111.6C36.592 111.792 36.784 111.968 36.928 112.128C37.088 112.304 37.232 112.512 37.36 112.752C37.472 112.96 37.528 113.2 37.528 113.472C37.544 113.744 37.448 113.96 37.24 114.12C37.016 114.296 36.784 114.32 36.544 114.192C36.016 113.952 35.632 113.568 35.392 113.04C35.152 112.512 34.984 111.968 34.888 111.408L33.808 111.192C33.808 111.512 33.84 111.8 33.904 112.056L34.12 112.92C34.168 113.112 34.224 113.4 34.288 113.784C34.336 114.072 34.336 114.36 34.288 114.648C34.224 114.952 34.048 115.128 33.76 115.176C33.472 115.224 33.216 115.184 32.992 115.056C32.448 114.816 31.968 114.496 31.552 114.096C31.12 113.696 30.784 113.24 30.544 112.728C30.432 112.52 30.376 112.264 30.376 111.96C30.376 111.672 30.488 111.44 30.712 111.264C30.92 111.152 31.136 111.152 31.36 111.264C31.584 111.376 31.752 111.52 31.864 111.696C31.848 111.952 31.752 112.08 31.576 112.08C31.4 112.08 31.232 112.056 31.072 112.008C31.296 112.616 31.64 113.144 32.104 113.592C32.584 114.04 33.128 114.376 33.736 114.6C33.752 114.296 33.728 114 33.664 113.712L33.448 112.848C33.4 112.656 33.344 112.368 33.28 111.984C33.232 111.68 33.24 111.392 33.304 111.12C33.368 110.96 33.48 110.84 33.64 110.76C33.8 110.68 33.952 110.64 34.096 110.64C34.256 110.64 34.432 110.664 34.624 110.712C34.816 110.76 34.984 110.808 35.128 110.856C35.032 109.864 34.96 108.864 34.912 107.856C34.864 106.912 34.728 105.928 34.504 104.904C34.392 104.344 34.208 103.72 33.952 103.032C33.664 102.264 33.456 101.664 33.328 101.232C33.296 101.12 33.304 101.024 33.352 100.944C33.4 100.832 33.456 100.768 33.52 100.752ZM37.024 113.568L37.048 113.568C36.936 113.248 36.768 112.952 36.544 112.68C36.352 112.44 36.096 112.216 35.776 112.008C35.888 112.28 36.032 112.6 36.208 112.968C36.368 113.304 36.64 113.504 37.024 113.568ZM33.52 86.399L33.664 86.471C33.776 86.439 33.864 86.447 33.928 86.495C34.008 86.543 34.056 86.615 34.072 86.711C34.088 86.711 34.144 86.839 34.24 87.095C34.336 87.351 34.456 87.687 34.6 88.103L34.696 88.343C34.76 88.487 34.816 88.623 34.864 88.751C34.992 89.055 35.136 89.439 35.296 89.903C35.6 90.751 35.784 91.255 35.848 91.415C36.104 92.151 36.304 92.711 36.448 93.095C36.736 93.927 36.976 94.647 37.168 95.255C37.36 95.863 37.504 96.367 37.6 96.767C37.696 97.167 37.768 97.503 37.816 97.775C37.864 98.047 37.888 98.263 37.888 98.423C37.888 98.615 37.864 98.743 37.816 98.807C37.784 98.855 37.736 98.911 37.672 98.975C37.464 99.151 37.224 99.199 36.952 99.119C36.712 99.055 36.448 98.919 36.16 98.711C35.904 98.519 35.648 98.311 35.392 98.087C35.152 97.863 34.96 97.695 34.816 97.583C34.992 98.399 35.24 99.151 35.56 99.839C36.008 100.799 36.352 101.519 36.592 101.999C36.64 102.175 36.64 102.295 36.592 102.359C36.544 102.423 36.472 102.455 36.376 102.455C36.312 102.455 36.2 102.439 36.04 102.407C35.928 102.375 35.832 102.351 35.752 102.335C33.848 101.567 32.072 100.583 30.424 99.383C28.792 98.199 27.32 96.807 26.008 95.207C25.48 94.519 25.032 93.895 24.664 93.335C24.232 92.695 23.944 91.983 23.8 91.199C23.72 90.895 23.744 90.583 23.872 90.263C23.984 89.959 24.216 89.767 24.568 89.687C24.888 89.607 25.192 89.607 25.48 89.687C25.752 89.751 26.032 89.863 26.32 90.023C26.624 90.183 26.88 90.359 27.088 90.551C27.168 90.631 27.288 90.735 27.448 90.863C27.608 90.991 27.72 91.087 27.784 91.151C28.392 91.759 28.912 92.343 29.344 92.903C29.872 93.575 30.328 94.207 30.712 94.799C31.144 95.455 31.552 96.127 31.936 96.815C32.352 97.567 32.744 98.247 33.112 98.855C33.224 99.031 33.376 99.311 33.568 99.695C33.664 99.887 33.824 100.159 34.048 100.511C34.208 100.751 34.4 100.975 34.624 101.183C34.832 101.375 35.112 101.519 35.464 101.615C35.16 100.943 34.872 100.271 34.6 99.599C34.328 98.927 34.16 98.223 34.096 97.487C34.064 97.311 34.096 97.143 34.192 96.983C34.288 96.823 34.432 96.751 34.624 96.767C34.848 96.815 35.064 96.935 35.272 97.127L35.92 97.703C36.064 97.831 36.28 98.007 36.568 98.231C36.776 98.391 36.976 98.471 37.168 98.471C37.2 98.231 37.12 97.775 36.928 97.103C36.784 96.607 36.528 95.767 36.16 94.583C35.792 93.479 35.344 92.231 34.816 90.839C34.192 89.207 33.696 87.879 33.328 86.855C33.296 86.775 33.304 86.687 33.352 86.591C33.4 86.479 33.456 86.415 33.52 86.399ZM25.264 92.975L25.24 93.047C26.248 94.615 27.44 96.023 28.816 97.271C30.192 98.519 31.68 99.599 33.28 100.511L32.128 98.423C31.872 97.959 31.472 97.279 30.928 96.383C30.48 95.647 30.048 94.983 29.632 94.391C29.184 93.751 28.704 93.127 28.192 92.519C27.776 92.087 27.352 91.663 26.92 91.247C26.488 90.847 25.992 90.535 25.432 90.311C25.384 90.295 25.296 90.271 25.168 90.239C25.104 90.223 25.008 90.215 24.88 90.215C24.784 90.215 24.696 90.239 24.616 90.287C24.536 90.335 24.488 90.415 24.472 90.527C24.408 90.975 24.472 91.407 24.664 91.823C24.888 92.287 25.088 92.671 25.264 92.975ZM33.544 73.8558L33.688 73.8318C33.896 73.7678 34.04 73.8398 34.12 74.0478L34.24 74.3838C34.336 74.5918 34.432 74.8318 34.528 75.1038C34.688 75.5358 34.776 75.7838 34.792 75.8478C34.808 75.9118 34.832 75.9758 34.864 76.0398C34.88 76.1038 34.896 76.1518 34.912 76.1838L34.912 76.2318C35.28 77.3358 35.52 78.3278 35.632 79.2078C35.76 80.1518 35.824 80.9438 35.824 81.5838C35.824 82.1438 35.784 82.6798 35.704 83.1918C35.64 83.5918 35.552 83.9598 35.44 84.2958L35.464 84.3198C35.944 84.7998 36.344 85.3278 36.664 85.9038C37 86.4958 37.144 87.1438 37.096 87.8478C37.096 88.1518 36.96 88.3998 36.688 88.5918C36.432 88.7838 36.168 88.8158 35.896 88.6878C35.432 88.4798 35 88.1998 34.6 87.8478C34.344 87.6238 33.976 87.2718 33.496 86.7918C33.16 86.9038 32.808 86.9758 32.44 87.0078C32.072 87.0238 31.736 86.9278 31.432 86.7198C31.176 86.5758 30.976 86.3838 30.832 86.1438C30.688 85.9038 30.592 85.6398 30.544 85.3518C30.496 85.0638 30.52 84.7838 30.616 84.5118C30.712 84.2398 30.872 84.0078 31.096 83.8158C31.368 83.5918 31.656 83.4318 31.96 83.3358C32.264 83.2398 32.592 83.1918 32.944 83.1918C33.312 83.1918 33.64 83.2478 33.928 83.3598C34.264 83.4878 34.552 83.6398 34.792 83.8158C34.872 83.4478 34.936 83.0478 34.984 82.6158C35.032 82.1998 35.04 81.6238 35.008 80.8878C34.992 80.2318 34.896 79.4798 34.72 78.6318C34.56 77.7998 34.296 76.8638 33.928 75.8238C33.912 75.8078 33.88 75.7198 33.832 75.5598C33.736 75.2878 33.68 75.1278 33.664 75.0798C33.568 74.8558 33.504 74.6958 33.472 74.5998C33.44 74.5038 33.4 74.4078 33.352 74.3118C33.32 74.2318 33.328 74.1438 33.376 74.0478C33.424 73.9358 33.48 73.8718 33.544 73.8558ZM32.536 83.8398L32.56 83.7918C32.08 83.8718 31.744 84.0478 31.552 84.3198C31.36 84.6078 31.296 84.9038 31.36 85.2078C31.424 85.5278 31.616 85.7918 31.936 85.9998C32.24 86.2078 32.656 86.2798 33.184 86.2158C33.04 85.9598 33.016 85.7678 33.112 85.6398C33.208 85.5118 33.416 85.5838 33.736 85.8558C33.896 85.7118 34.072 85.5198 34.264 85.2798C34.44 85.0718 34.584 84.8078 34.696 84.4878C34.392 84.2638 34.056 84.0718 33.688 83.9118C33.32 83.7518 32.936 83.7278 32.536 83.8398ZM36.4 88.0398C36.512 87.4478 36.44 86.8958 36.184 86.3838C35.912 85.8558 35.6 85.3758 35.248 84.9438C34.928 85.4878 34.568 85.9598 34.168 86.3598C34.504 86.6798 34.848 86.9998 35.2 87.3198C35.552 87.6238 35.952 87.8638 36.4 88.0398ZM33.544 51.8373L33.568 51.9813C33.648 51.9493 33.728 51.9573 33.808 52.0053C33.904 52.0533 33.96 52.1093 33.976 52.1733C33.976 52.1893 34.024 52.3333 34.12 52.6053C34.136 52.6693 34.192 52.8213 34.288 53.0613C34.368 53.3013 34.44 53.5093 34.504 53.6853C34.568 53.8773 34.648 54.0933 34.744 54.3333C34.904 54.7333 35.072 55.1973 35.248 55.7253C35.36 56.0613 35.56 56.7093 35.848 57.6693C36.056 58.3893 36.248 59.1333 36.424 59.9013C36.6 60.6853 36.744 61.4613 36.856 62.2293C36.968 62.9653 37.024 63.6933 37.024 64.4133C37.024 64.5733 37.008 64.8453 36.976 65.2293C36.944 65.5173 36.896 65.8053 36.832 66.0933C36.768 66.3653 36.656 66.6293 36.496 66.8853C36.336 67.1413 36.144 67.3493 35.92 67.5093C36.256 67.9733 36.592 68.4933 36.928 69.0693C37.248 69.6133 37.512 70.1733 37.72 70.7493C37.784 70.8933 37.824 71.0293 37.84 71.1573C37.856 71.2533 37.864 71.3973 37.864 71.5893C37.864 71.7173 37.824 71.8453 37.744 71.9733C37.664 72.1013 37.56 72.1973 37.432 72.2613C37.224 72.3253 37.008 72.3493 36.784 72.3333C36.496 72.3013 36.28 72.2693 36.136 72.2373C35.992 72.2053 35.776 72.1413 35.488 72.0453L34.84 71.8293C35.016 72.3093 35.208 72.7573 35.416 73.1733C35.56 73.4613 35.76 73.9093 36.016 74.5173C36.08 74.7733 36.088 74.9653 36.04 75.0933C35.992 75.2053 35.92 75.2853 35.824 75.3333C35.712 75.3813 35.608 75.3973 35.512 75.3813C35.4 75.3653 35.32 75.3413 35.272 75.3093C34.744 75.1333 34.24 74.8933 33.76 74.5893C33.12 74.1733 32.648 73.8613 32.344 73.6533C32.216 73.6213 32.144 73.5653 32.128 73.4853C32.096 73.3893 32.096 73.2933 32.128 73.1973C32.16 73.1013 32.208 73.0293 32.272 72.9813C32.352 72.9333 32.44 72.9333 32.536 72.9813C32.968 73.2213 33.416 73.5013 33.88 73.8213C34.36 74.1413 34.824 74.3973 35.272 74.5893C35.144 74.2853 34.936 73.8293 34.648 73.2213C34.44 72.7733 34.272 72.2933 34.144 71.7813C34.064 71.5893 34.096 71.3973 34.24 71.2053C34.384 71.0133 34.568 70.9573 34.792 71.0373C35.336 71.1973 35.736 71.3173 35.992 71.3973C36.408 71.5253 36.808 71.5893 37.192 71.5893C37.016 70.8533 36.752 70.1573 36.4 69.5013C36.048 68.8453 35.664 68.2213 35.248 67.6293C34.448 67.7093 33.688 67.6293 32.968 67.3893C32.216 67.1493 31.576 66.7413 31.048 66.1653C30.872 65.9413 30.728 65.7013 30.616 65.4453C30.488 65.1733 30.472 64.8933 30.568 64.6053C30.68 64.3173 30.896 64.1493 31.216 64.1013C31.536 64.0533 31.824 64.0853 32.08 64.1973C32.736 64.4853 33.344 64.8693 33.904 65.3493C34.512 65.8773 35.04 66.3653 35.488 66.8133L35.512 66.8613C35.72 66.7493 35.896 66.5493 36.04 66.2613C36.328 65.6533 36.424 64.7413 36.328 63.5253C36.232 62.3413 35.952 60.8293 35.488 58.9893C35.36 58.4453 35.176 57.7893 34.936 57.0213C34.744 56.3973 34.576 55.8453 34.432 55.3653C34.288 54.8853 34.168 54.5013 34.072 54.2133L33.904 53.7813C33.856 53.6213 33.768 53.3813 33.64 53.0613C33.576 52.9013 33.48 52.6453 33.352 52.2933C33.32 52.2133 33.328 52.1253 33.376 52.0293C33.424 51.9173 33.48 51.8533 33.544 51.8373ZM31.168 64.8933L31.24 64.9413C31.304 65.3413 31.464 65.6773 31.72 65.9493C31.96 66.2213 32.248 66.4373 32.584 66.5973C32.952 66.7893 33.312 66.9253 33.664 67.0053C34 67.0853 34.368 67.1413 34.768 67.1733C34.688 67.0933 34.568 66.9733 34.408 66.8133C34.232 66.6533 34.096 66.5253 34 66.4293C33.76 66.1893 33.48 65.9493 33.16 65.7093C32.84 65.4693 32.528 65.2853 32.224 65.1573C31.872 64.9973 31.52 64.9093 31.168 64.8933ZM33.544 40.8221L33.64 40.8941C33.72 40.8621 33.8 40.8701 33.88 40.9181C33.976 40.9661 34.032 41.0221 34.048 41.0861L34.168 41.4221C34.184 41.4541 34.296 41.7741 34.504 42.3821C34.552 42.5101 34.72 42.9741 35.008 43.7741C35.072 43.9501 35.176 44.2301 35.32 44.6141C35.448 44.9981 35.544 45.2861 35.608 45.4781C35.768 45.9901 35.88 46.3741 35.944 46.6301C36.072 47.1581 36.152 47.4941 36.184 47.6381C36.28 47.9901 36.352 48.3021 36.4 48.5741C36.496 49.0381 36.568 49.4861 36.616 49.9181C36.648 50.1741 36.68 50.5581 36.712 51.0701C36.728 51.4701 36.704 51.8541 36.64 52.2221C36.576 52.5901 36.432 52.9021 36.208 53.1581C36.048 53.3181 35.832 53.4141 35.56 53.4461C35.288 53.4781 35.048 53.4301 34.84 53.3021C34.232 53.0301 33.712 52.6541 33.28 52.1741C32.832 51.6781 32.408 51.1821 32.008 50.6861C31.688 50.2541 31.376 49.7581 31.072 49.1981C30.784 48.6861 30.656 48.1181 30.688 47.4941C30.704 47.2861 30.776 47.1101 30.904 46.9661C31.016 46.8381 31.16 46.7341 31.336 46.6541C31.512 46.5741 31.696 46.5501 31.888 46.5821C32.08 46.6141 32.248 46.6861 32.392 46.7981C32.44 46.9741 32.432 47.0941 32.368 47.1581C32.304 47.2221 32.208 47.2701 32.08 47.3021C31.968 47.3181 31.84 47.3181 31.696 47.3021C31.504 47.2701 31.384 47.2541 31.336 47.2541C31.256 47.4781 31.232 47.6941 31.264 47.9021C31.28 48.1101 31.328 48.3101 31.408 48.5021C31.456 48.6301 31.544 48.8221 31.672 49.0781C31.768 49.2861 31.872 49.4621 31.984 49.6061C32.336 50.1501 32.704 50.6301 33.088 51.0461C33.504 51.4941 33.96 51.9021 34.456 52.2701C34.76 52.4941 34.992 52.6061 35.152 52.6061C35.328 52.6061 35.464 52.5581 35.56 52.4621C35.656 52.3661 35.728 52.2621 35.776 52.1501L35.824 51.9821C35.92 51.5821 35.944 51.1021 35.896 50.5421C35.848 49.9661 35.776 49.3981 35.68 48.8381C35.584 48.2621 35.464 47.7101 35.32 47.1821C35.128 46.4781 35 46.0301 34.936 45.8381C34.872 45.6301 34.8 45.4061 34.72 45.1661C34.624 44.9101 34.528 44.6301 34.432 44.3261C34.32 44.0221 34.232 43.7821 34.168 43.6061C33.896 42.8381 33.608 42.0461 33.304 41.2301C33.272 41.1181 33.28 41.0301 33.328 40.9661C33.376 40.9021 33.448 40.8541 33.544 40.8221ZM33.544 26.4225L33.496 26.4705C33.512 26.4545 33.56 26.4465 33.64 26.4465C33.768 26.4785 33.856 26.5505 33.904 26.6625C33.904 26.7105 33.96 26.8785 34.072 27.1665C34.184 27.4865 34.328 27.8945 34.504 28.3905C34.648 28.7905 34.84 29.3185 35.08 29.9745C35.272 30.4865 35.496 31.1585 35.752 31.9905C35.944 32.5985 36.12 33.2705 36.28 34.0065C36.424 34.6625 36.496 35.2145 36.496 35.6625C36.496 35.9185 36.456 36.1425 36.376 36.3345C36.248 36.5905 36.056 36.7265 35.8 36.7425C35.608 36.7585 35.384 36.7105 35.128 36.5985C34.84 36.4705 34.576 36.3185 34.336 36.1425L33.808 35.7105C33.712 35.6305 33.568 35.4945 33.376 35.3025L33.016 34.9425C33.256 35.8865 33.56 36.9025 33.928 37.9905C34.232 38.9025 34.528 39.8945 34.816 40.9665C34.864 41.0785 34.888 41.2065 34.888 41.3505C34.888 41.4945 34.864 41.6225 34.816 41.7345C34.768 41.8465 34.696 41.9425 34.6 42.0225C34.504 42.0865 34.384 42.0945 34.24 42.0465C33.824 41.8545 33.464 41.5745 33.16 41.2065L32.296 40.1265C32.008 39.7105 31.792 39.3905 31.648 39.1665C31.44 38.8465 31.264 38.5025 31.12 38.1345C30.976 37.7665 30.88 37.3985 30.832 37.0305C30.784 36.6465 30.808 36.2625 30.904 35.8785C30.968 35.5745 31.128 35.3105 31.384 35.0865C31.624 34.8625 31.912 34.7665 32.248 34.7985L32.248 34.4625C32.248 34.3825 32.256 34.3105 32.272 34.2465C32.304 34.1185 32.328 34.0305 32.344 33.9825C32.36 33.9185 32.4 33.8545 32.464 33.7905C32.512 33.7425 32.576 33.7345 32.656 33.7665C32.976 34.0065 33.168 34.1585 33.232 34.2225C33.456 34.4145 33.6 34.5425 33.664 34.6065C33.744 34.6865 33.864 34.7905 34.024 34.9185C34.104 34.9825 34.224 35.0945 34.384 35.2545C34.72 35.5105 34.992 35.7025 35.2 35.8305C35.424 35.9745 35.608 36.0305 35.752 35.9985C35.768 35.9985 35.792 35.9825 35.824 35.9505C35.92 35.7745 35.92 35.3985 35.824 34.8225C35.744 34.3105 35.584 33.6385 35.344 32.8065C35.152 32.1185 34.896 31.3105 34.576 30.3825C34.368 29.7585 34.088 28.9905 33.736 28.0785C33.72 27.9185 33.672 27.7665 33.592 27.6225L33.448 27.2385L33.304 26.8785C33.272 26.7985 33.28 26.7105 33.328 26.6145C33.376 26.5025 33.448 26.4385 33.544 26.4225ZM32.464 35.5185L32.44 35.6145C32.152 35.5185 31.936 35.5345 31.792 35.6625C31.648 35.7905 31.552 35.9585 31.504 36.1665C31.456 36.4065 31.44 36.6465 31.456 36.8865C31.488 37.1585 31.536 37.3745 31.6 37.5345C31.856 38.2545 32.216 38.9265 32.68 39.5505C33.144 40.1745 33.648 40.7505 34.192 41.2785C33.984 40.3505 33.704 39.3905 33.352 38.3985C33.048 37.5505 32.752 36.5905 32.464 35.5185ZM33.52 12.4393L33.52 12.4153C33.744 12.3513 33.888 12.4233 33.952 12.6313C33.984 12.6953 34.064 12.8873 34.192 13.2073C34.256 13.3673 34.352 13.6233 34.48 13.9753C34.512 14.0713 34.592 14.3273 34.72 14.7433C34.8 14.9993 34.848 15.1753 34.864 15.2713C35.184 16.5033 35.4 17.7513 35.512 19.0153C35.624 20.1513 35.704 21.4233 35.752 22.8313C36.008 23.0233 36.208 23.1753 36.352 23.2873C36.592 23.4793 36.784 23.6553 36.928 23.8153C37.088 23.9913 37.232 24.1993 37.36 24.4393C37.472 24.6473 37.528 24.8873 37.528 25.1593C37.544 25.4313 37.448 25.6473 37.24 25.8073C37.016 25.9833 36.784 26.0073 36.544 25.8793C36.016 25.6393 35.632 25.2553 35.392 24.7273C35.152 24.1993 34.984 23.6553 34.888 23.0953L33.808 22.8793C33.808 23.1993 33.84 23.4873 33.904 23.7433L34.12 24.6073C34.168 24.7993 34.224 25.0873 34.288 25.4713C34.336 25.7593 34.336 26.0473 34.288 26.3353C34.224 26.6393 34.048 26.8153 33.76 26.8633C33.472 26.9113 33.216 26.8713 32.992 26.7433C32.448 26.5033 31.968 26.1833 31.552 25.7833C31.12 25.3833 30.784 24.9273 30.544 24.4153C30.432 24.2073 30.376 23.9513 30.376 23.6473C30.376 23.3593 30.488 23.1273 30.712 22.9513C30.92 22.8393 31.136 22.8393 31.36 22.9513C31.584 23.0633 31.752 23.2073 31.864 23.3833C31.848 23.6393 31.752 23.7673 31.576 23.7673C31.4 23.7673 31.232 23.7433 31.072 23.6953C31.296 24.3033 31.64 24.8313 32.104 25.2793C32.584 25.7273 33.128 26.0633 33.736 26.2873C33.752 25.9833 33.728 25.6873 33.664 25.3993L33.448 24.5353C33.4 24.3433 33.344 24.0553 33.28 23.6713C33.232 23.3673 33.24 23.0793 33.304 22.8073C33.368 22.6473 33.48 22.5273 33.64 22.4473C33.8 22.3673 33.952 22.3273 34.096 22.3273C34.256 22.3273 34.432 22.3513 34.624 22.3993C34.816 22.4473 34.984 22.4953 35.128 22.5433C35.032 21.5513 34.96 20.5513 34.912 19.5433C34.864 18.5993 34.728 17.6153 34.504 16.5913C34.392 16.0313 34.208 15.4073 33.952 14.7193C33.664 13.9513 33.456 13.3513 33.328 12.9193C33.296 12.8073 33.304 12.7113 33.352 12.6313C33.4 12.5193 33.456 12.4553 33.52 12.4393ZM37.024 25.2553L37.048 25.2553C36.936 24.9353 36.768 24.6393 36.544 24.3673C36.352 24.1273 36.096 23.9033 35.776 23.6953C35.888 23.9673 36.032 24.2873 36.208 24.6553C36.368 24.9913 36.64 25.1913 37.024 25.2553ZM33.544 0.390529L33.568 0.582529C33.648 0.550529 33.728 0.558529 33.808 0.606529C33.904 0.654529 33.96 0.71053 33.976 0.77453C34.008 0.806529 34.096 1.02253 34.24 1.42253C34.384 1.83853 34.552 2.31853 34.744 2.86253C34.872 3.23053 35.064 3.76653 35.32 4.47053C35.512 4.99853 35.656 5.38253 35.752 5.62253C35.976 6.40653 36.112 6.89453 36.16 7.08653C36.304 7.67853 36.416 8.17453 36.496 8.57453C36.544 8.81453 36.616 9.19053 36.712 9.70253C36.776 10.0385 36.808 10.4225 36.808 10.8545C36.808 11.2385 36.76 11.6225 36.664 12.0065C36.568 12.4065 36.392 12.7665 36.136 13.0865C35.944 13.3265 35.712 13.4705 35.44 13.5185C35.2 13.5665 34.912 13.5505 34.576 13.4705C34.304 13.4065 34.008 13.2945 33.688 13.1345C33.464 13.0225 33.224 12.8865 32.968 12.7265C32.456 12.4065 32.008 12.0065 31.624 11.5265C31.24 11.0465 30.952 10.5265 30.76 9.96653C30.68 9.72653 30.656 9.46253 30.688 9.17453C30.72 8.87053 30.864 8.66253 31.12 8.55053C31.36 8.48653 31.584 8.51053 31.792 8.62253C32 8.73453 32.176 8.87853 32.32 9.05453C32.736 9.53453 33.08 10.0865 33.352 10.7105C33.592 11.2385 33.816 11.8385 34.024 12.5105C34.104 12.5425 34.232 12.5905 34.408 12.6545C34.584 12.7185 34.696 12.7585 34.744 12.7745C35 12.8705 35.24 12.8305 35.464 12.6545C35.752 12.3505 35.92 11.9745 35.968 11.5265C36.016 11.0465 36.032 10.6305 36.016 10.2785C35.92 9.17453 35.712 8.04653 35.392 6.89453C35.072 5.75853 34.712 4.66253 34.312 3.60653C34.168 3.22253 34.08 2.98253 34.048 2.88653L33.76 2.02253C33.728 1.92653 33.68 1.79053 33.616 1.61453C33.552 1.43853 33.512 1.31853 33.496 1.25453C33.416 1.01453 33.368 0.878529 33.352 0.846529C33.32 0.766529 33.328 0.678529 33.376 0.582529C33.424 0.470529 33.48 0.406529 33.544 0.390529ZM31.288 9.24653C31.32 9.85453 31.512 10.4065 31.864 10.9025C32.216 11.3985 32.624 11.8305 33.088 12.1985C32.912 11.6705 32.68 11.1265 32.392 10.5665C32.136 10.0385 31.768 9.59853 31.288 9.24653Z" fill="#EDC684"/>
</svg>
