<svg width="15" height="153" viewBox="0 0 15 153" fill="none" xmlns="http://www.w3.org/2000/svg">
<path d="M9.52 130.704L9.616 130.896C9.68 130.88 9.76 130.88 9.856 130.896C9.936 130.912 9.992 130.976 10.024 131.088C10.536 132.384 10.968 133.6 11.32 134.736C11.656 135.84 11.92 136.848 12.112 137.76C12.32 138.752 12.456 139.568 12.52 140.208C12.6 141.008 12.64 141.648 12.64 142.128C12.64 143.056 12.568 143.784 12.424 144.312C12.28 144.824 12.144 145.2 12.016 145.44L12.52 146.112C13.304 147.184 13.896 148.264 14.296 149.352C14.392 149.64 14.496 150.008 14.608 150.456C14.704 150.872 14.704 151.256 14.608 151.608C14.512 152.024 14.304 152.352 13.984 152.592C13.664 152.832 13.256 152.872 12.76 152.712C12.328 152.584 11.928 152.408 11.56 152.184C10.984 151.88 10.416 151.504 9.856 151.056C9.296 150.624 8.728 150.08 8.152 149.424C7.992 149.248 7.696 148.912 7.264 148.416C7.136 148.24 6.968 148.144 6.76 148.128C5.608 148.112 4.552 147.824 3.592 147.264C2.36 146.592 1.592 145.68 1.288 144.528C1.032 143.6 1.216 142.736 1.84 141.936C2.336 141.328 2.976 140.912 3.76 140.688C4.528 140.464 5.336 140.488 6.184 140.76C7.224 141.08 8.184 141.608 9.064 142.344C9.4 142.616 9.704 142.88 9.976 143.136C10.2 143.344 10.688 143.824 11.44 144.576L11.536 144.696C11.664 144.344 11.776 143.864 11.872 143.256C11.968 142.616 11.968 141.752 11.872 140.664C11.776 139.576 11.536 138.256 11.152 136.704C10.752 135.088 10.144 133.24 9.328 131.16C9.296 131.08 9.296 130.992 9.328 130.896C9.36 130.8 9.424 130.736 9.52 130.704ZM11.704 146.136L11.704 146.256C11.24 146.752 10.712 147.16 10.12 147.48C9.528 147.784 8.816 148.024 7.984 148.2C8.384 148.696 8.88 149.248 9.472 149.856C9.984 150.384 10.584 150.872 11.272 151.32C11.56 151.512 11.808 151.656 12.016 151.752C12.048 151.768 12.28 151.872 12.712 152.064C13.08 152.24 13.384 152.256 13.624 152.112C13.864 151.968 13.992 151.672 14.008 151.224C14.088 150.952 14.064 150.648 13.936 150.312C13.776 149.864 13.656 149.536 13.576 149.328C13.336 148.816 13.096 148.344 12.856 147.912C12.6 147.448 12.272 146.928 11.872 146.352C11.776 146.224 11.72 146.152 11.704 146.136ZM10.432 146.472L10.552 146.544C10.696 146.448 10.84 146.328 10.984 146.184C11.08 146.088 11.208 145.928 11.368 145.704L11.344 145.68L11.272 145.608L11.2 145.536C10.128 144.224 8.976 143.208 7.744 142.488C7.44 142.312 7.112 142.144 6.76 141.984C6.424 141.824 6.12 141.712 5.848 141.648C4.792 141.376 3.856 141.544 3.04 142.152C2.528 142.536 2.216 142.992 2.104 143.52C1.976 144.048 2.072 144.592 2.392 145.152C2.792 145.92 3.384 146.504 4.168 146.904C4.952 147.304 5.792 147.56 6.688 147.672C6.672 147.624 6.648 147.568 6.616 147.504L6.52 147.36C6.072 146.768 5.72 146.24 5.464 145.776C5.192 145.312 4.944 144.824 4.72 144.312C4.624 144.024 4.552 143.712 4.504 143.376C4.504 143.2 4.552 143.064 4.648 142.968C4.744 142.904 4.864 142.88 5.008 142.896C5.168 142.944 5.288 143.064 5.368 143.256C5.384 143.4 5.36 143.504 5.296 143.568C5.184 143.68 5.2 143.92 5.344 144.288C5.472 144.608 5.68 144.992 5.968 145.44C6.144 145.712 6.408 146.104 6.76 146.616C6.872 146.792 7.064 147.064 7.336 147.432C7.416 147.512 7.472 147.56 7.504 147.576C7.552 147.608 7.624 147.608 7.72 147.576C8.728 147.432 9.632 147.064 10.432 146.472ZM9.52 114.141L9.856 114.261C9.936 114.229 10.016 114.237 10.096 114.285C10.176 114.333 10.232 114.405 10.264 114.501L10.408 114.885C10.536 115.237 10.656 115.581 10.768 115.917L11.272 117.429C11.336 117.621 11.432 117.925 11.56 118.341C11.688 118.741 11.792 119.053 11.872 119.277C11.952 119.533 12.072 119.933 12.232 120.477C12.264 120.589 12.368 120.973 12.544 121.629C12.576 121.725 12.624 121.885 12.688 122.109C12.736 122.317 12.776 122.477 12.808 122.589L12.952 123.165C13.144 123.965 13.296 124.709 13.408 125.397C13.504 125.973 13.552 126.429 13.552 126.765C13.552 127.101 13.52 127.333 13.456 127.461C13.376 127.621 13.296 127.733 13.216 127.797C13.168 127.813 13.096 127.837 13 127.869C12.888 127.901 12.72 127.869 12.496 127.773C12.24 127.677 11.92 127.501 11.536 127.245C11.088 126.957 10.544 126.549 9.904 126.021C10.192 126.997 10.552 127.957 10.984 128.901C11.432 129.877 11.784 130.837 12.04 131.781L12.136 132.429C12.184 132.653 12.096 132.829 11.872 132.957C11.696 133.053 11.52 133.037 11.344 132.909C11.184 132.781 11.04 132.661 10.912 132.549C10.352 132.037 9.856 131.557 9.424 131.109C8.96 130.629 8.528 130.085 8.128 129.477C8.064 129.413 8.016 129.325 7.984 129.213C7.952 129.117 7.952 129.029 7.984 128.949C8.016 128.869 8.064 128.821 8.128 128.805C8.208 128.773 8.304 128.781 8.416 128.829C8.848 129.437 9.304 130.013 9.784 130.557C10.216 131.053 10.736 131.565 11.344 132.093C11.2 131.533 11.032 131.013 10.84 130.533C10.712 130.197 10.504 129.693 10.216 129.021C10.072 128.685 9.872 128.181 9.616 127.509C9.408 126.965 9.248 126.445 9.136 125.949C9.072 125.757 9.048 125.541 9.064 125.301C9.08 125.061 9.224 124.941 9.496 124.941C9.576 124.941 9.672 124.989 9.784 125.085C9.896 125.181 9.952 125.237 9.952 125.253L10.744 125.901C11.016 126.125 11.28 126.317 11.536 126.477C11.616 126.525 11.736 126.597 11.896 126.693C12.04 126.789 12.144 126.861 12.208 126.909C12.4 127.037 12.544 127.109 12.64 127.125C12.72 126.949 12.72 126.597 12.64 126.069C12.592 125.669 12.48 125.045 12.304 124.197C12.192 123.653 12.008 122.877 11.752 121.869C11.544 121.037 11.304 120.221 11.032 119.421L10.84 118.893C10.728 118.557 10.584 118.149 10.408 117.669C10.36 117.525 10.272 117.285 10.144 116.949C10.016 116.597 9.92 116.317 9.856 116.109C9.568 115.293 9.392 114.797 9.328 114.621C9.296 114.509 9.304 114.413 9.352 114.333C9.4 114.221 9.456 114.157 9.52 114.141ZM9.52 100.642L9.544 100.594C9.624 100.562 9.704 100.57 9.784 100.618C9.864 100.666 9.92 100.738 9.952 100.834C9.968 100.85 10.096 101.21 10.336 101.914C10.384 102.058 10.512 102.434 10.72 103.042C10.928 103.634 11.104 104.13 11.248 104.53C11.584 105.538 11.792 106.17 11.872 106.426C12.112 107.194 12.352 107.986 12.592 108.802C12.928 110.002 13.176 111.018 13.336 111.85C13.464 112.554 13.544 113.138 13.576 113.602C13.608 114.114 13.552 114.458 13.408 114.634C13.264 114.826 13.08 114.922 12.856 114.922C12.632 114.922 12.376 114.85 12.088 114.706C11.896 114.61 11.624 114.45 11.272 114.226C11.192 114.178 11.08 114.106 10.936 114.01C10.776 113.914 10.664 113.842 10.6 113.794C10.408 113.682 10.28 113.634 10.216 113.65C10.088 113.698 10 113.77 9.952 113.866C9.888 113.994 9.84 114.098 9.808 114.178C9.776 114.258 9.712 114.378 9.616 114.538C9.552 114.65 9.432 114.73 9.256 114.778L9.232 114.778C8.896 114.778 8.584 114.682 8.296 114.49C7.992 114.298 7.72 114.098 7.48 113.89C7.24 113.65 7.032 113.41 6.856 113.17C6.664 112.898 6.592 112.61 6.64 112.306C6.72 112.082 6.864 111.946 7.072 111.898C7.296 111.85 7.488 111.858 7.648 111.922C8.032 112.066 8.368 112.282 8.656 112.57C8.928 112.842 9.2 113.138 9.472 113.458C9.6 113.234 9.76 113.074 9.952 112.978C10.224 112.834 10.488 112.842 10.744 113.002C11.016 113.162 11.256 113.33 11.464 113.506C11.672 113.682 11.912 113.85 12.184 114.01C12.456 114.17 12.672 114.218 12.832 114.154C12.96 114.026 12.976 113.642 12.88 113.002C12.784 112.362 12.616 111.546 12.376 110.554C12.168 109.706 11.864 108.626 11.464 107.314C11.096 106.146 10.712 104.994 10.312 103.858L10.336 103.858L9.832 102.49L9.328 101.122C9.296 101.01 9.304 100.914 9.352 100.834C9.4 100.722 9.456 100.658 9.52 100.642ZM9.136 113.986C8.928 113.682 8.672 113.378 8.368 113.074C8.08 112.786 7.744 112.57 7.36 112.426C7.584 112.778 7.848 113.09 8.152 113.362C8.456 113.618 8.784 113.826 9.136 113.986ZM9.52 69.5526L9.52 69.5286C9.744 69.4646 9.888 69.5366 9.952 69.7446C9.984 69.8086 10.064 70.0006 10.192 70.3206C10.256 70.4806 10.352 70.7366 10.48 71.0886C10.512 71.1846 10.592 71.4406 10.72 71.8566C10.8 72.1126 10.848 72.2886 10.864 72.3846C11.184 73.6166 11.4 74.8646 11.512 76.1286C11.624 77.2646 11.704 78.5366 11.752 79.9446C12.008 80.1366 12.208 80.2886 12.352 80.4006C12.592 80.5926 12.784 80.7686 12.928 80.9286C13.088 81.1046 13.232 81.3126 13.36 81.5526C13.472 81.7606 13.528 82.0006 13.528 82.2726C13.544 82.5446 13.448 82.7606 13.24 82.9206C13.016 83.0966 12.784 83.1206 12.544 82.9926C12.016 82.7526 11.632 82.3686 11.392 81.8406C11.152 81.3126 10.984 80.7686 10.888 80.2086L9.808 79.9926C9.808 80.3126 9.84 80.6006 9.904 80.8566L10.12 81.7206C10.168 81.9126 10.224 82.2006 10.288 82.5846C10.336 82.8726 10.336 83.1606 10.288 83.4486C10.224 83.7526 10.048 83.9286 9.76 83.9766C9.472 84.0246 9.216 83.9846 8.992 83.8566C8.448 83.6166 7.968 83.2966 7.552 82.8966C7.12 82.4966 6.784 82.0406 6.544 81.5286C6.432 81.3206 6.376 81.0646 6.376 80.7606C6.376 80.4726 6.488 80.2406 6.712 80.0646C6.92 79.9526 7.136 79.9526 7.36 80.0646C7.584 80.1766 7.752 80.3206 7.864 80.4966C7.848 80.7526 7.752 80.8806 7.576 80.8806C7.4 80.8806 7.232 80.8566 7.072 80.8086C7.296 81.4166 7.64 81.9446 8.104 82.3926C8.584 82.8406 9.128 83.1766 9.736 83.4006C9.752 83.0966 9.728 82.8006 9.664 82.5126L9.448 81.6486C9.4 81.4566 9.344 81.1686 9.28 80.7846C9.232 80.4806 9.24 80.1926 9.304 79.9206C9.368 79.7606 9.48 79.6406 9.64 79.5606C9.8 79.4806 9.952 79.4406 10.096 79.4406C10.256 79.4406 10.432 79.4646 10.624 79.5126C10.816 79.5606 10.984 79.6086 11.128 79.6566C11.032 78.6646 10.96 77.6646 10.912 76.6566C10.864 75.7126 10.728 74.7286 10.504 73.7046C10.392 73.1446 10.208 72.5206 9.952 71.8326C9.664 71.0646 9.456 70.4646 9.328 70.0326C9.296 69.9206 9.304 69.8246 9.352 69.7446C9.4 69.6326 9.456 69.5686 9.52 69.5526ZM13.024 82.3686L13.048 82.3686C12.936 82.0486 12.768 81.7526 12.544 81.4806C12.352 81.2406 12.096 81.0166 11.776 80.8086C11.888 81.0806 12.032 81.4006 12.208 81.7686C12.368 82.1046 12.64 82.3046 13.024 82.3686ZM9.544 53.1838L9.544 53.3038C9.624 53.2718 9.704 53.2798 9.784 53.3278C9.88 53.3758 9.936 53.4318 9.952 53.4958L10.168 54.0958C10.312 54.4958 10.504 55.0238 10.744 55.6798C10.984 56.3358 11.248 57.0798 11.536 57.9118C11.824 58.7438 12.112 59.6078 12.4 60.5038L12.496 60.8638C12.592 61.1678 12.712 61.5998 12.856 62.1598C12.904 62.3518 13.056 62.9918 13.312 64.0798C13.488 64.8158 13.632 65.5438 13.744 66.2638C13.872 66.9998 13.944 67.7198 13.96 68.4238C13.992 69.1438 13.936 69.7278 13.792 70.1758C13.728 70.5118 13.56 70.7998 13.288 71.0398C13.032 71.2798 12.728 71.3838 12.376 71.3518C11.816 71.3198 11.312 71.1998 10.864 70.9918C10.384 70.7678 9.92 70.5198 9.472 70.2478C8.832 69.8638 8.16 69.4158 7.456 68.9038C6.816 68.4238 6.192 67.9198 5.584 67.3918C5.6 67.6958 5.64 68.1518 5.704 68.7598L5.848 70.1278C5.672 70.1278 5.512 70.0798 5.368 69.9838C5.224 69.8878 5.152 69.7438 5.152 69.5518C5.04 69.0238 4.976 68.5438 4.96 68.1118L4.888 66.6718C4.584 66.3518 4.128 65.8558 3.52 65.1838C3.072 64.6878 2.712 64.1118 2.44 63.4558C2.376 63.3118 2.336 63.1758 2.31999 63.0478C2.288 62.9038 2.288 62.7598 2.31999 62.6158C2.336 62.4878 2.384 62.3598 2.464 62.2318C2.528 62.1038 2.648 62.0318 2.824 62.0158C3.064 61.9838 3.256 61.9918 3.4 62.0398C3.576 62.0878 3.744 62.1598 3.904 62.2558C4.016 62.3198 4.184 62.4318 4.408 62.5918C4.52 62.6718 4.672 62.7918 4.864 62.9518L4.984 60.2398C5.016 60.0158 5.136 59.9038 5.344 59.9038C5.568 59.9358 5.68 60.0478 5.68 60.2398L5.68 60.2638L5.512 63.5758L5.512 63.5998C6.088 64.2078 6.672 64.8798 7.264 65.6158C7.808 66.3038 8.336 67.0238 8.848 67.7758C8.976 67.9678 9.152 68.2398 9.376 68.5918C9.504 68.7998 9.68 69.0958 9.904 69.4798C9.936 69.4958 10.064 69.5678 10.288 69.6958C10.512 69.8078 10.68 69.8958 10.792 69.9598C10.952 70.0398 11.208 70.1598 11.56 70.3198C11.816 70.4318 12.048 70.5038 12.256 70.5358C12.56 70.5998 12.784 70.5278 12.928 70.3198C13.072 70.1118 13.168 69.8478 13.216 69.5278C13.264 69.2558 13.272 68.9278 13.24 68.5438C13.224 68.3198 13.216 68.0878 13.216 67.8478C13.152 67.3198 13.064 66.7038 12.952 65.9998C12.824 65.2318 12.72 64.6558 12.64 64.2718C12.512 63.6958 12.368 63.0718 12.208 62.3998C12.048 61.7598 11.832 61.0078 11.56 60.1438C11.256 59.1998 10.944 58.2478 10.624 57.2878C10.272 56.2318 9.84 55.0078 9.328 53.6158C9.264 53.4078 9.336 53.2638 9.544 53.1838ZM2.896 62.5918L2.896 62.6638C2.944 62.9518 3.032 63.2398 3.16 63.5278C3.272 63.7838 3.416 64.0478 3.592 64.3198C3.768 64.5918 3.96 64.8318 4.168 65.0398C4.312 65.1838 4.512 65.3998 4.768 65.6878L4.768 64.8238C4.768 64.4398 4.776 64.1438 4.792 63.9358L4.768 63.9118C4.464 63.6078 4.176 63.3518 3.904 63.1438C3.568 62.8878 3.232 62.7038 2.896 62.5918ZM5.512 66.4558L5.536 66.4798C6.208 67.0878 6.72 67.5358 7.072 67.8238C7.648 68.2878 8.2 68.6878 8.728 69.0238C8.248 68.2558 7.744 67.5118 7.216 66.7918C6.768 66.1838 6.2 65.4798 5.512 64.6798L5.512 65.5678L5.512 66.4558ZM9.54399 40.641L9.68799 40.617C9.89599 40.553 10.04 40.625 10.12 40.833L10.24 41.169C10.336 41.377 10.432 41.617 10.528 41.889C10.688 42.321 10.776 42.569 10.792 42.633C10.808 42.697 10.832 42.761 10.864 42.825C10.88 42.889 10.896 42.937 10.912 42.969L10.912 43.017C11.28 44.121 11.52 45.113 11.632 45.993C11.76 46.937 11.824 47.729 11.824 48.369C11.824 48.929 11.784 49.465 11.704 49.977C11.64 50.377 11.552 50.745 11.44 51.081L11.464 51.105C11.944 51.585 12.344 52.113 12.664 52.689C13 53.281 13.144 53.929 13.096 54.633C13.096 54.937 12.96 55.185 12.688 55.377C12.432 55.569 12.168 55.601 11.896 55.473C11.432 55.265 11 54.985 10.6 54.633C10.344 54.409 9.976 54.057 9.49599 53.577C9.16 53.689 8.808 53.761 8.44 53.793C8.07199 53.809 7.736 53.713 7.432 53.505C7.176 53.361 6.97599 53.169 6.83199 52.929C6.68799 52.689 6.59199 52.425 6.544 52.137C6.496 51.849 6.52 51.569 6.61599 51.297C6.71199 51.025 6.872 50.793 7.096 50.601C7.368 50.377 7.656 50.217 7.96 50.121C8.264 50.025 8.592 49.977 8.944 49.977C9.312 49.977 9.63999 50.033 9.928 50.145C10.264 50.273 10.552 50.425 10.792 50.601C10.872 50.233 10.936 49.833 10.984 49.401C11.032 48.985 11.04 48.409 11.008 47.673C10.992 47.017 10.896 46.265 10.72 45.417C10.56 44.585 10.296 43.649 9.92799 42.609C9.91199 42.593 9.88 42.505 9.832 42.345C9.73599 42.073 9.67999 41.913 9.664 41.865C9.56799 41.641 9.50399 41.481 9.47199 41.385C9.43999 41.289 9.39999 41.193 9.35199 41.097C9.31999 41.017 9.32799 40.929 9.37599 40.833C9.42399 40.721 9.47999 40.657 9.54399 40.641ZM8.536 50.625L8.56 50.577C8.08 50.657 7.744 50.833 7.55199 51.105C7.35999 51.393 7.296 51.689 7.36 51.993C7.424 52.313 7.616 52.577 7.936 52.785C8.24 52.993 8.656 53.065 9.184 53.001C9.04 52.745 9.016 52.553 9.112 52.425C9.208 52.297 9.416 52.369 9.736 52.641C9.896 52.497 10.072 52.305 10.264 52.065C10.44 51.857 10.584 51.593 10.696 51.273C10.392 51.049 10.056 50.857 9.688 50.697C9.32 50.537 8.936 50.513 8.536 50.625ZM12.4 54.825C12.512 54.233 12.44 53.681 12.184 53.169C11.912 52.641 11.6 52.161 11.248 51.729C10.928 52.273 10.568 52.745 10.168 53.145C10.504 53.465 10.848 53.785 11.2 54.105C11.552 54.409 11.952 54.649 12.4 54.825ZM9.51999 27.1185L9.54399 27.0705C9.62399 27.0385 9.70399 27.0465 9.78399 27.0945C9.86399 27.1425 9.91999 27.2145 9.95199 27.3105C9.96799 27.3265 10.096 27.6865 10.336 28.3905C10.384 28.5345 10.512 28.9105 10.72 29.5185C10.928 30.1105 11.104 30.6065 11.248 31.0065C11.584 32.0145 11.792 32.6465 11.872 32.9025C12.112 33.6705 12.352 34.4625 12.592 35.2785C12.928 36.4785 13.176 37.4945 13.336 38.3265C13.464 39.0305 13.544 39.6145 13.576 40.0785C13.608 40.5905 13.552 40.9345 13.408 41.1105C13.264 41.3025 13.08 41.3985 12.856 41.3985C12.632 41.3985 12.376 41.3265 12.088 41.1825C11.896 41.0865 11.624 40.9265 11.272 40.7025C11.192 40.6545 11.08 40.5825 10.936 40.4865C10.776 40.3905 10.664 40.3185 10.6 40.2705C10.408 40.1585 10.28 40.1105 10.216 40.1265C10.088 40.1745 9.99999 40.2465 9.95199 40.3425C9.88799 40.4705 9.83999 40.5745 9.80799 40.6545C9.77599 40.7345 9.71199 40.8545 9.616 41.0145C9.55199 41.1265 9.43199 41.2065 9.25599 41.2545L9.23199 41.2545C8.896 41.2545 8.58399 41.1585 8.29599 40.9665C7.99199 40.7745 7.71999 40.5745 7.47999 40.3665C7.23999 40.1265 7.03199 39.8865 6.85599 39.6465C6.66399 39.3745 6.59199 39.0865 6.63999 38.7825C6.71999 38.5585 6.86399 38.4225 7.07199 38.3745C7.29599 38.3265 7.48799 38.3345 7.64799 38.3985C8.03199 38.5425 8.36799 38.7585 8.65599 39.0465C8.92799 39.3185 9.19999 39.6145 9.47199 39.9345C9.59999 39.7105 9.76 39.5505 9.95199 39.4545C10.224 39.3105 10.488 39.3185 10.744 39.4785C11.016 39.6385 11.256 39.8065 11.464 39.9825C11.672 40.1585 11.912 40.3265 12.184 40.4865C12.456 40.6465 12.672 40.6945 12.832 40.6305C12.96 40.5025 12.976 40.1185 12.88 39.4785C12.784 38.8385 12.616 38.0225 12.376 37.0305C12.168 36.1825 11.864 35.1025 11.464 33.7905C11.096 32.6225 10.712 31.4705 10.312 30.3345L10.336 30.3345L9.83199 28.9665L9.32799 27.5985C9.29599 27.4865 9.30399 27.3905 9.35199 27.3105C9.39999 27.1985 9.45599 27.1345 9.51999 27.1185ZM9.13599 40.4625C8.92799 40.1585 8.67199 39.8545 8.36799 39.5505C8.07999 39.2625 7.74399 39.0465 7.35999 38.9025C7.58399 39.2545 7.84799 39.5665 8.15199 39.8385C8.45599 40.0945 8.78399 40.3025 9.13599 40.4625ZM9.54399 15.1054L9.56799 15.2974C9.64799 15.2654 9.72799 15.2734 9.80799 15.3214C9.90399 15.3694 9.95999 15.4254 9.97599 15.4894C10.008 15.5214 10.096 15.7374 10.24 16.1374C10.384 16.5534 10.552 17.0334 10.744 17.5774C10.872 17.9454 11.064 18.4814 11.32 19.1854C11.512 19.7134 11.656 20.0974 11.752 20.3374C11.976 21.1214 12.112 21.6094 12.16 21.8014C12.304 22.3934 12.416 22.8894 12.496 23.2894C12.544 23.5294 12.616 23.9054 12.712 24.4174C12.776 24.7534 12.808 25.1374 12.808 25.5694C12.808 25.9534 12.76 26.3374 12.664 26.7214C12.568 27.1214 12.392 27.4814 12.136 27.8014C11.944 28.0414 11.712 28.1854 11.44 28.2334C11.2 28.2814 10.912 28.2654 10.576 28.1854C10.304 28.1214 10.008 28.0094 9.68799 27.8494C9.46399 27.7374 9.22399 27.6014 8.96799 27.4414C8.45599 27.1214 8.00799 26.7214 7.62399 26.2414C7.23999 25.7614 6.95199 25.2414 6.75999 24.6814C6.67999 24.4414 6.65599 24.1774 6.68799 23.8894C6.71999 23.5854 6.86399 23.3774 7.11999 23.2654C7.35999 23.2014 7.58399 23.2254 7.79199 23.3374C7.99999 23.4494 8.17599 23.5934 8.31999 23.7694C8.73599 24.2494 9.07999 24.8014 9.35199 25.4254C9.59199 25.9534 9.81599 26.5534 10.024 27.2254C10.104 27.2574 10.232 27.3054 10.408 27.3694C10.584 27.4334 10.696 27.4734 10.744 27.4894C11 27.5854 11.24 27.5454 11.464 27.3694C11.752 27.0654 11.92 26.6894 11.968 26.2414C12.016 25.7614 12.032 25.3454 12.016 24.9934C11.92 23.8894 11.712 22.7614 11.392 21.6094C11.072 20.4734 10.712 19.3774 10.312 18.3214C10.168 17.9374 10.08 17.6974 10.048 17.6014L9.75999 16.7374C9.72799 16.6414 9.67999 16.5054 9.61599 16.3294C9.55199 16.1534 9.51199 16.0334 9.49599 15.9694C9.41599 15.7294 9.36799 15.5934 9.35199 15.5614C9.31999 15.4814 9.32799 15.3934 9.37599 15.2974C9.42399 15.1854 9.47999 15.1214 9.54399 15.1054ZM7.28799 23.9614C7.31999 24.5694 7.51199 25.1214 7.86399 25.6174C8.21599 26.1134 8.62399 26.5454 9.08799 26.9134C8.91199 26.3854 8.67999 25.8414 8.39199 25.2814C8.13599 24.7534 7.76799 24.3134 7.28799 23.9614ZM9.51999 1.11506L9.51999 1.09106C9.74399 1.02706 9.88799 1.09906 9.95199 1.30706C9.98399 1.37106 10.064 1.56306 10.192 1.88306C10.256 2.04306 10.352 2.29906 10.48 2.65106C10.512 2.74706 10.592 3.00306 10.72 3.41906C10.8 3.67506 10.848 3.85106 10.864 3.94706C11.184 5.17906 11.4 6.42706 11.512 7.69106C11.624 8.82706 11.704 10.0991 11.752 11.5071C12.008 11.6991 12.208 11.8511 12.352 11.9631C12.592 12.1551 12.784 12.3311 12.928 12.4911C13.088 12.6671 13.232 12.8751 13.36 13.1151C13.472 13.3231 13.528 13.5631 13.528 13.8351C13.544 14.1071 13.448 14.3231 13.24 14.4831C13.016 14.6591 12.784 14.6831 12.544 14.5551C12.016 14.3151 11.632 13.9311 11.392 13.4031C11.152 12.8751 10.984 12.3311 10.888 11.7711L9.80799 11.5551C9.80799 11.8751 9.83999 12.1631 9.90399 12.4191L10.12 13.2831C10.168 13.4751 10.224 13.7631 10.288 14.1471C10.336 14.4351 10.336 14.7231 10.288 15.0111C10.224 15.3151 10.048 15.4911 9.75999 15.5391C9.47199 15.5871 9.21599 15.5471 8.99199 15.4191C8.44799 15.1791 7.96799 14.8591 7.55199 14.4591C7.11999 14.0591 6.78399 13.6031 6.54399 13.0911C6.43199 12.8831 6.37599 12.6271 6.37599 12.3231C6.37599 12.0351 6.48799 11.8031 6.71199 11.6271C6.91999 11.5151 7.13599 11.5151 7.35999 11.6271C7.58399 11.7391 7.75199 11.8831 7.86399 12.0591C7.84799 12.3151 7.75199 12.4431 7.57599 12.4431C7.39999 12.4431 7.23199 12.4191 7.07199 12.3711C7.29599 12.9791 7.63999 13.5071 8.10399 13.9551C8.58399 14.4031 9.12799 14.7391 9.73599 14.9631C9.75199 14.6591 9.72799 14.3631 9.66399 14.0751L9.44799 13.2111C9.39999 13.0191 9.34399 12.7311 9.27999 12.3471C9.23199 12.0431 9.23999 11.7551 9.30399 11.4831C9.36799 11.3231 9.47999 11.2031 9.63999 11.1231C9.79999 11.0431 9.95199 11.0031 10.096 11.0031C10.256 11.0031 10.432 11.0271 10.624 11.0751C10.816 11.1231 10.984 11.1711 11.128 11.2191C11.032 10.2271 10.96 9.22706 10.912 8.21906C10.864 7.27506 10.728 6.29106 10.504 5.26706C10.392 4.70706 10.208 4.08306 9.95199 3.39506C9.66399 2.62706 9.45599 2.02706 9.32799 1.59506C9.29599 1.48306 9.30399 1.38706 9.35199 1.30706C9.39999 1.19506 9.45599 1.13106 9.51999 1.11506ZM13.024 13.9311L13.048 13.9311C12.936 13.6111 12.768 13.3151 12.544 13.0431C12.352 12.8031 12.096 12.5791 11.776 12.3711C11.888 12.6431 12.032 12.9631 12.208 13.3311C12.368 13.6671 12.64 13.8671 13.024 13.9311Z" fill="#EDC684"/>
</svg>
